<svg xmlns="http://www.w3.org/2000/svg" width="238.6554412841797" height="228.69680786132812" viewBox="-25.58488655090332 -15.179779052734375 238.6554412841797 228.69680786132812"><title>Neo4j Graph Visualization</title><desc>Created using Neo4j (http://www.neo4j.com/)</desc><g class="layer relationships"><g class="relationship" transform="translate(167.46651280075926 184.51702462620977) rotate(279.03303283982825)"><path class="outline" fill="#A5ABB6" stroke="none" d="M 21.40063509461097,12.933012701892217 L 21.90063509461097,12.06698729810778 A 58.181530157605685 58.181530157605685 0 0 0 38.360165702172544,18.474162684860474 L 38.14306528496067,19.45031196076372 A 59.181530157605685 59.181530157605685 0 0 1 21.40063509461097,12.933012701892217 Z M 60.2016153384739,20.140764706478933 L 60.04598882559847,19.15294873754027 A 58.181530157605685 58.181530157605685 0 0 0 76.87400692567512,13.787704001150379 L 75.5394284082926,11.10090289557128 L 83.36563925825676,11.121487644854344 L 78.65344494885181,17.370105475255844 L 77.31886643146929,14.683304369676746 A 59.181530157605685 59.181530157605685 0 0 1 60.2016153384739,20.140764706478933"/><text text-anchor="middle" pointer-events="none" font-size="8px" fill="#000000" x="49.15551386294363" y="23.333108883959433" font-family="sans-serif">road</text></g><g class="relationship" transform="translate(184.07055917734164 80.0729590813738) rotate(218.97894079280616)"><path class="outline" fill="#A5ABB6" stroke="none" d="M 25 0.5 L 39.494258855488276 0.5 L 39.494258855488276 -0.5 L 25 -0.5 Z M 58.830196355488276 0.5 L 73.32445521097655 0.5 L 73.32445521097655 3.5 L 80.32445521097655 0 L 73.32445521097655 -3.5 L 73.32445521097655 -0.5 L 58.830196355488276 -0.5 Z"/><text text-anchor="middle" pointer-events="none" font-size="8px" fill="#000000" x="49.162227605488276" y="3" transform="rotate(180 49.162227605488276 0)" font-family="sans-serif">trek</text></g><g class="relationship" transform="translate(102.1937272778268 13.82022129954629) rotate(519.1130296989354)"><path class="outline" fill="#A5ABB6" stroke="none" d="M 25 0.5 L 39.69521118976862 0.5 L 39.69521118976862 -0.5 L 25 -0.5 Z M 59.03114868976862 0.5 L 73.72635987953724 0.5 L 73.72635987953724 3.5 L 80.72635987953724 0 L 73.72635987953724 -3.5 L 73.72635987953724 -0.5 L 59.03114868976862 -0.5 Z"/><text text-anchor="middle" pointer-events="none" font-size="8px" fill="#000000" x="49.36317993976862" y="3" transform="rotate(180 49.36317993976862 0)" font-family="sans-serif">trek</text></g><g class="relationship" transform="translate(167.46651280075926 184.51702462620977) rotate(279.03303283982825)"><path class="outline" fill="#A5ABB6" stroke="none" d="M 25 0.5 L 39.709855485707955 0.5 L 39.709855485707955 -0.5 L 25 -0.5 Z M 59.045792985707955 0.5 L 73.75564847141591 0.5 L 73.75564847141591 3.5 L 80.75564847141591 0 L 73.75564847141591 -3.5 L 73.75564847141591 -0.5 L 59.045792985707955 -0.5 Z"/><text text-anchor="middle" pointer-events="none" font-size="8px" fill="#000000" x="49.377824235707955" y="3" font-family="sans-serif">trek</text></g><g class="relationship" transform="translate(167.46651280075926 184.51702462620977) rotate(279.03303283982825)"><path class="outline" fill="#A5ABB6" stroke="none" d="M 21.40063509461097,-12.933012701892217 L 21.90063509461097,-12.06698729810778 A 58.181530157605685 58.181530157605685 0 0 1 22.692996155602145,-12.516224340187541 L 22.206614928756526,-13.38997104385637 A 59.181530157605685 59.181530157605685 0 0 0 21.40063509461097,-12.933012701892217 Z M 76.48588593781166,-15.088961757783771 L 76.05510143973424,-14.186506929985626 A 58.181530157605685 58.181530157605685 0 0 1 76.87400692567512,-13.787704001150379 L 75.5394284082926,-11.10090289557128 L 83.36563925825676,-11.121487644854344 L 78.65344494885181,-17.370105475255844 L 77.31886643146929,-14.683304369676746 A 59.181530157605685 59.181530157605685 0 0 0 76.48588593781166,-15.088961757783771"/><text text-anchor="middle" pointer-events="none" font-size="8px" fill="#000000" x="49.155513862943636" y="-17.333108883959433" font-family="sans-serif">PublicTrans…</text></g></g><g class="layer nodes"><g class="node" transform="translate(167.46651280075926,184.51702462620977)"><circle class="outline" cx="0" cy="0" r="25" fill="#F16667" stroke="#eb2728" stroke-width="2px"/><text text-anchor="middle" pointer-events="none" font-family="sans-serif" dy="1.5625" font-size="25" fill="#FFFFFF"/><text text-anchor="middle" pointer-events="none" y="5" font-size="10px" fill="#FFFFFF" font-family="sans-serif"> Darjeeling</text></g><g class="node" transform="translate(184.07055917734164,80.0729590813738)"><circle class="outline" cx="0" cy="0" r="25" fill="#F16667" stroke="#eb2728" stroke-width="2px"/><text text-anchor="middle" pointer-events="none" font-family="sans-serif" dy="1.5625" font-size="25" fill="#FFFFFF"/><text text-anchor="middle" pointer-events="none" y="5" font-size="10px" fill="#FFFFFF" font-family="sans-serif"> Rimbik</text></g><g class="node" transform="translate(102.1937272778268,13.82022129954629)"><circle class="outline" cx="0" cy="0" r="25" fill="#D9C8AE" stroke="#c0a378" stroke-width="2px"/><text text-anchor="middle" pointer-events="none" font-family="sans-serif" dy="1.5625" font-size="25" fill="#604A0E"/><text text-anchor="middle" pointer-events="none" y="5" font-size="10px" fill="#604A0E" font-family="sans-serif"> BhikeBh…</text></g><g class="node" transform="translate(3.415114201186686,51.51436901550938)"><circle class="outline" cx="0" cy="0" r="25" fill="#8DCC93" stroke="#5db665" stroke-width="2px"/><text text-anchor="middle" pointer-events="none" font-family="sans-serif" dy="1.5625" font-size="25" fill="#604A0E"/><text text-anchor="middle" pointer-events="none" y="5" font-size="10px" fill="#604A0E" font-family="sans-serif"> Sandak…</text></g></g></svg>