<svg xmlns="http://www.w3.org/2000/svg" width="288.2426452636719" height="283.2755432128906" viewBox="-51.53671646118164 -41.871498107910156 288.2426452636719 283.2755432128906"><title>Neo4j Graph Visualization</title><desc>Created using Neo4j (http://www.neo4j.com/)</desc><g class="layer relationships"><g class="relationship" transform="translate(150.88222284679722 206.18212371477318) rotate(239.59236166159036)"><path class="outline" fill="#A5ABB6" stroke="none" d="M 25 0.5 L 32.526290537171235 0.5 L 32.526290537171235 -0.5 L 25 -0.5 Z M 78.08879053717123 0.5 L 85.61508107434247 0.5 L 85.61508107434247 3.5 L 92.61508107434247 0 L 85.61508107434247 -3.5 L 85.61508107434247 -0.5 L 78.08879053717123 -0.5 Z"/><text text-anchor="middle" pointer-events="none" font-size="8px" fill="#000000" x="55.307540537171235" y="3" transform="rotate(180 55.307540537171235 0)" font-family="sans-serif">ACTED_IN</text></g><g class="relationship" transform="translate(207.70593715521457 121.53604370917614) rotate(188.2114176711679)"><path class="outline" fill="#A5ABB6" stroke="none" d="M 25 0.5 L 31.83453086007136 0.5 L 31.83453086007136 -0.5 L 25 -0.5 Z M 78.72515586007137 0.5 L 85.55968672014272 0.5 L 85.55968672014272 3.5 L 92.55968672014272 0 L 85.55968672014272 -3.5 L 85.55968672014272 -0.5 L 78.72515586007137 -0.5 Z"/><text text-anchor="middle" pointer-events="none" font-size="8px" fill="#000000" x="55.27984336007136" y="3" transform="rotate(180 55.27984336007136 0)" font-family="sans-serif">DIRECTED</text></g><g class="relationship" transform="translate(181.97699104443754 30.61380810395057) rotate(500.71684068974366)"><path class="outline" fill="#A5ABB6" stroke="none" d="M 25 0.5 L 37.154889475537615 0.5 L 37.154889475537615 -0.5 L 25 -0.5 Z M 72.92832697553762 0.5 L 85.08321645107523 0.5 L 85.08321645107523 3.5 L 92.08321645107523 0 L 85.08321645107523 -3.5 L 85.08321645107523 -0.5 L 72.92832697553762 -0.5 Z"/><text text-anchor="middle" pointer-events="none" font-size="8px" fill="#000000" x="55.041608225537615" y="3" transform="rotate(180 55.041608225537615 0)" font-family="sans-serif">WROTE</text></g><g class="relationship" transform="translate(98.02616752418109 -12.871500046890368) rotate(453.24800732779494)"><path class="outline" fill="#A5ABB6" stroke="none" d="M 25 0.5 L 32.62184148111117 0.5 L 32.62184148111117 -0.5 L 25 -0.5 Z M 78.18434148111118 0.5 L 85.80618296222234 0.5 L 85.80618296222234 3.5 L 92.80618296222234 0 L 85.80618296222234 -3.5 L 85.80618296222234 -0.5 L 78.18434148111118 -0.5 Z"/><text text-anchor="middle" pointer-events="none" font-size="8px" fill="#000000" x="55.40309148111117" y="3" transform="rotate(180 55.40309148111117 0)" font-family="sans-serif">ACTED_IN</text></g><g class="relationship" transform="translate(1.9503552040425673 29.090940734809404) rotate(400.2391156439963)"><path class="outline" fill="#A5ABB6" stroke="none" d="M 25 0.5 L 32.27677260630923 0.5 L 32.27677260630923 -0.5 L 25 -0.5 Z M 77.83927260630924 0.5 L 85.11604521261846 0.5 L 85.11604521261846 3.5 L 92.11604521261846 0 L 85.11604521261846 -3.5 L 85.11604521261846 -0.5 L 77.83927260630924 -0.5 Z"/><text text-anchor="middle" pointer-events="none" font-size="8px" fill="#000000" x="55.05802260630923" y="3" font-family="sans-serif">ACTED_IN</text></g><g class="relationship" transform="translate(-22.536716415964804 131.85229801460687) rotate(346.6119715998858)"><path class="outline" fill="#A5ABB6" stroke="none" d="M 25 0.5 L 32.253583074147706 0.5 L 32.253583074147706 -0.5 L 25 -0.5 Z M 77.81608307414771 0.5 L 85.06966614829541 0.5 L 85.06966614829541 3.5 L 92.06966614829541 0 L 85.06966614829541 -3.5 L 85.06966614829541 -0.5 L 77.81608307414771 -0.5 Z"/><text text-anchor="middle" pointer-events="none" font-size="8px" fill="#000000" x="55.034833074147706" y="3" font-family="sans-serif">ACTED_IN</text></g><g class="relationship" transform="translate(46.47460567351305 212.40404146967043) rotate(292.62854499385975)"><path class="outline" fill="#A5ABB6" stroke="none" d="M 25 0.5 L 36.932036823929835 0.5 L 36.932036823929835 -0.5 L 25 -0.5 Z M 72.70547432392983 0.5 L 84.63751114785967 0.5 L 84.63751114785967 3.5 L 91.63751114785967 0 L 84.63751114785967 -3.5 L 84.63751114785967 -0.5 L 72.70547432392983 -0.5 Z"/><text text-anchor="middle" pointer-events="none" font-size="8px" fill="#000000" x="54.818755573929835" y="3" font-family="sans-serif">WROTE</text></g></g><g class="layer nodes"><g class="node" transform="translate(91.35149717915348,104.74544397017638)"><circle class="outline" cx="0" cy="0" r="25" fill="#57C7E3" stroke="#23b3d7" stroke-width="2px"/><text text-anchor="middle" pointer-events="none" font-family="sans-serif" dy="1.5625" font-size="25" fill="#FFFFFF"/><text text-anchor="middle" pointer-events="none" font-family="sans-serif" dy="1.5625" font-size="25" fill="#FFFFFF"/><text text-anchor="middle" pointer-events="none" font-family="sans-serif" dy="1.5625" font-size="25" fill="#FFFFFF"/><text text-anchor="middle" pointer-events="none" y="-5" font-size="10px" fill="#FFFFFF" font-family="sans-serif"> Captain</text><text text-anchor="middle" pointer-events="none" y="5" font-size="10px" fill="#FFFFFF" font-family="sans-serif"> America:</text><text text-anchor="middle" pointer-events="none" y="15" font-size="10px" fill="#FFFFFF" font-family="sans-serif"> Pierw…</text></g><g class="node" transform="translate(150.88222284679722,206.18212371477318)"><circle class="outline" cx="0" cy="0" r="25" fill="#F79767" stroke="#f36924" stroke-width="2px"/><text text-anchor="middle" pointer-events="none" font-family="sans-serif" dy="1.5625" font-size="25" fill="#FFFFFF"/><text text-anchor="middle" pointer-events="none" y="5" font-size="10px" fill="#FFFFFF" font-family="sans-serif"> Sebastian</text></g><g class="node" transform="translate(207.70593715521457,121.53604370917614)"><circle class="outline" cx="0" cy="0" r="25" fill="#F79767" stroke="#f36924" stroke-width="2px"/><text text-anchor="middle" pointer-events="none" font-family="sans-serif" dy="1.5625" font-size="25" fill="#FFFFFF"/><text text-anchor="middle" pointer-events="none" font-family="sans-serif" dy="1.5625" font-size="25" fill="#FFFFFF"/><text text-anchor="middle" pointer-events="none" y="0" font-size="10px" fill="#FFFFFF" font-family="sans-serif"> Joe</text><text text-anchor="middle" pointer-events="none" y="10" font-size="10px" fill="#FFFFFF" font-family="sans-serif"> Johnson</text></g><g class="node" transform="translate(181.97699104443754,30.61380810395057)"><circle class="outline" cx="0" cy="0" r="25" fill="#F79767" stroke="#f36924" stroke-width="2px"/><text text-anchor="middle" pointer-events="none" font-family="sans-serif" dy="1.5625" font-size="25" fill="#FFFFFF"/><text text-anchor="middle" pointer-events="none" y="5" font-size="10px" fill="#FFFFFF" font-family="sans-serif"> Christop…</text></g><g class="node" transform="translate(98.02616752418109,-12.871500046890368)"><circle class="outline" cx="0" cy="0" r="25" fill="#F79767" stroke="#f36924" stroke-width="2px"/><text text-anchor="middle" pointer-events="none" font-family="sans-serif" dy="1.5625" font-size="25" fill="#FFFFFF"/><text text-anchor="middle" pointer-events="none" font-family="sans-serif" dy="1.5625" font-size="25" fill="#FFFFFF"/><text text-anchor="middle" pointer-events="none" y="0" font-size="10px" fill="#FFFFFF" font-family="sans-serif"> Tommy</text><text text-anchor="middle" pointer-events="none" y="10" font-size="10px" fill="#FFFFFF" font-family="sans-serif"> Lee Jon…</text></g><g class="node" transform="translate(1.9503552040425673,29.090940734809404)"><circle class="outline" cx="0" cy="0" r="25" fill="#F79767" stroke="#f36924" stroke-width="2px"/><text text-anchor="middle" pointer-events="none" font-family="sans-serif" dy="1.5625" font-size="25" fill="#FFFFFF"/><text text-anchor="middle" pointer-events="none" font-family="sans-serif" dy="1.5625" font-size="25" fill="#FFFFFF"/><text text-anchor="middle" pointer-events="none" y="0" font-size="10px" fill="#FFFFFF" font-family="sans-serif"> Hayley</text><text text-anchor="middle" pointer-events="none" y="10" font-size="10px" fill="#FFFFFF" font-family="sans-serif"> Atwell</text></g><g class="node" transform="translate(-22.536716415964804,131.85229801460687)"><circle class="outline" cx="0" cy="0" r="25" fill="#F79767" stroke="#f36924" stroke-width="2px"/><text text-anchor="middle" pointer-events="none" font-family="sans-serif" dy="1.5625" font-size="25" fill="#FFFFFF"/><text text-anchor="middle" pointer-events="none" font-family="sans-serif" dy="1.5625" font-size="25" fill="#FFFFFF"/><text text-anchor="middle" pointer-events="none" y="0" font-size="10px" fill="#FFFFFF" font-family="sans-serif"> Chris</text><text text-anchor="middle" pointer-events="none" y="10" font-size="10px" fill="#FFFFFF" font-family="sans-serif"> Evans</text></g><g class="node" transform="translate(46.47460567351305,212.40404146967043)"><circle class="outline" cx="0" cy="0" r="25" fill="#F79767" stroke="#f36924" stroke-width="2px"/><text text-anchor="middle" pointer-events="none" font-family="sans-serif" dy="1.5625" font-size="25" fill="#FFFFFF"/><text text-anchor="middle" pointer-events="none" font-family="sans-serif" dy="1.5625" font-size="25" fill="#FFFFFF"/><text text-anchor="middle" pointer-events="none" y="0" font-size="10px" fill="#FFFFFF" font-family="sans-serif"> Stephen</text><text text-anchor="middle" pointer-events="none" y="10" font-size="10px" fill="#FFFFFF" font-family="sans-serif"> McFeely</text></g></g></svg>