<svg xmlns="http://www.w3.org/2000/svg" width="406.2249755859375" height="383.71405029296875" viewBox="-99.74050903320312 -83.86251831054688 406.2249755859375 383.71405029296875"><title>Neo4j Graph Visualization</title><desc>Created using Neo4j (http://www.neo4j.com/)</desc><g class="layer relationships"><g class="relationship" transform="translate(174.10221870832882 270.8515203488719) rotate(316.97803293226787)"><path class="outline" fill="#A5ABB6" stroke="none" d="M 24.018736134675446,-6.953439040707552 L 24.277555179777966,-5.987513214418485 A 110.53776875639137 110.53776875639137 0 0 1 40.234741400382774,-9.027533252371441 L 40.120281938435696,-10.020961172036877 A 111.53776875639137 111.53776875639137 0 0 0 24.018736134675446,-6.953439040707552 Z M 62.192248830179075,-10.365150805353778 L 62.108820463296176,-9.36863702842983 A 110.53776875639137 110.53776875639137 0 0 1 78.15303681464279,-6.827645965596746 L 77.46731096287743,-3.907067246195283 L 85.08200813520709,-5.714382098044522 L 79.06733795032991,-10.721750924798698 L 78.38161209856456,-7.8011722053972345 A 111.53776875639137 111.53776875639137 0 0 0 62.192248830179075,-10.365150805353778"/><text text-anchor="middle" pointer-events="none" font-size="8px" fill="#000000" x="51.155525572193916" y="-7.240498174322269" font-family="sans-serif">road</text></g><g class="relationship" transform="translate(254.09844408615254 196.19647200259757) rotate(281.7675500157919)"><path class="outline" fill="#A5ABB6" stroke="none" d="M 21.40063509461097,-12.933012701892217 L 21.90063509461097,-12.06698729810778 A 67.38939345262949 67.38939345262949 0 0 1 44.10197476229026,-20.10811701713888 L 43.93142333765525,-21.093465793742865 A 68.38939345262949 68.38939345262949 0 0 0 21.40063509461097,-12.933012701892217 Z M 63.335846532582075,-21.655994903689688 L 63.22266356193593,-20.662420741809598 A 67.38939345262949 67.38939345262949 0 0 1 85.85254731293874,-13.920936364162873 L 84.50557501024475,-11.240327176725199 L 92.33179746740898,-11.224769189116527 L 87.64851038319738,-17.495081947413105 L 86.30153808050339,-14.81447275997543 A 68.38939345262949 68.38939345262949 0 0 0 63.335846532582075,-21.655994903689688"/><text text-anchor="middle" pointer-events="none" font-size="8px" fill="#000000" x="53.628062690120814" y="-18.566944757130287" font-family="sans-serif">trek</text></g><g class="relationship" transform="translate(277.4844729337308 83.9362826594911) rotate(188.20324154951265)"><path class="outline" fill="#A5ABB6" stroke="none" d="M 21.40063509461097,12.933012701892217 L 21.90063509461097,12.06698729810778 A 68.8214387341434 68.8214387341434 0 0 0 43.48839373829262,20.082158846623386 L 43.30207155498395,21.064647545798636 A 69.8214387341434 69.8214387341434 0 0 1 21.40063509461097,12.933012701892217 Z M 65.3704717254155,21.697121041407513 L 65.24072479627777,20.705573899623857 A 68.8214387341434 68.8214387341434 0 0 0 87.25209673700387,13.939939894077744 L 85.90335674357631,11.260219679180482 L 93.72956723733542,11.23949994522965 L 89.05041672824062,17.512900180607428 L 87.70167673481306,14.833179965710164 A 69.8214387341434 69.8214387341434 0 0 1 65.3704717254155,21.697121041407513"/><text text-anchor="middle" pointer-events="none" font-size="8px" fill="#000000" x="54.32543898116253" y="24.758859744277842" transform="rotate(180 54.32543898116253 21.758859744277842)" font-family="sans-serif">road</text></g><g class="relationship" transform="translate(162.61141707931637 67.37618840234362) rotate(516.1779855022419)"><path class="outline" fill="#A5ABB6" stroke="none" d="M 25 0.5 L 56.62749927082342 0.5 L 56.62749927082342 -0.5 L 25 -0.5 Z M 75.96343677082342 0.5 L 107.59093604164684 0.5 L 107.59093604164684 3.5 L 114.59093604164684 0 L 107.59093604164684 -3.5 L 107.59093604164684 -0.5 L 75.96343677082342 -0.5 Z"/><text text-anchor="middle" pointer-events="none" font-size="8px" fill="#000000" x="66.29546802082342" y="3" transform="rotate(180 66.29546802082342 0)" font-family="sans-serif">trek</text></g><g class="relationship" transform="translate(174.10221870832882 270.8515203488719) rotate(316.97803293226787)"><path class="outline" fill="#A5ABB6" stroke="none" d="M 24.018736134675446,6.953439040707552 L 24.277555179777966,5.987513214418485 A 110.53776875639137 110.53776875639137 0 0 0 41.55874078498264,9.172003268306 L 41.45625912392204,10.16673816220802 A 111.53776875639137 111.53776875639137 0 0 1 24.018736134675446,6.953439040707552 Z M 60.85237585182671,10.46920066303963 L 60.78096021384533,9.471754019528461 A 110.53776875639137 110.53776875639137 0 0 0 78.15303681464279,6.827645965596746 L 77.46731096287743,3.907067246195283 L 85.08200813520709,5.714382098044522 L 79.06733795032991,10.721750924798698 L 78.38161209856456,7.8011722053972345 A 111.53776875639137 111.53776875639137 0 0 1 60.85237585182671,10.46920066303963"/><text text-anchor="middle" pointer-events="none" font-size="8px" fill="#000000" x="51.15552557219392" y="13.24049817432227" font-family="sans-serif">trek</text></g><g class="relationship" transform="translate(254.09844408615254 196.19647200259757) rotate(281.7675500157919)"><path class="outline" fill="#A5ABB6" stroke="none" d="M 25 0.5 L 30.602681806361474 0.5 L 30.602681806361474 -0.5 L 25 -0.5 Z M 77.06752555636147 0.5 L 82.67020736272295 0.5 L 82.67020736272295 3.5 L 89.67020736272295 0 L 82.67020736272295 -3.5 L 82.67020736272295 -0.5 L 77.06752555636147 -0.5 Z"/><text text-anchor="middle" pointer-events="none" font-size="8px" fill="#000000" x="53.835103681361474" y="3" font-family="sans-serif">twowheeler</text></g><g class="relationship" transform="translate(254.09844408615254 196.19647200259757) rotate(281.7675500157919)"><path class="outline" fill="#A5ABB6" stroke="none" d="M 21.40063509461097,12.933012701892217 L 21.90063509461097,12.06698729810778 A 67.38939345262949 67.38939345262949 0 0 0 42.79571138639765,19.86873942744333 L 42.60577614913326,20.85053604876839 A 68.38939345262949 68.38939345262949 0 0 1 21.40063509461097,12.933012701892217 Z M 64.67334054289525,21.49026891958944 L 64.5406005336092,20.499118027981737 A 67.38939345262949 67.38939345262949 0 0 0 85.85254731293874,13.920936364162873 L 84.50557501024475,11.240327176725199 L 92.33179746740898,11.224769189116527 L 87.64851038319738,17.495081947413105 L 86.30153808050339,14.81447275997543 A 68.38939345262949 68.38939345262949 0 0 1 64.67334054289525,21.49026891958944"/><text text-anchor="middle" pointer-events="none" font-size="8px" fill="#000000" x="53.628062690120814" y="24.566944757130287" font-family="sans-serif">road</text></g><g class="relationship" transform="translate(277.4844729337308 83.9362826594911) rotate(188.20324154951265)"><path class="outline" fill="#A5ABB6" stroke="none" d="M 25 0.5 L 31.29786263907296 0.5 L 31.29786263907296 -0.5 L 25 -0.5 Z M 77.76270638907296 0.5 L 84.06056902814592 0.5 L 84.06056902814592 3.5 L 91.06056902814592 0 L 84.06056902814592 -3.5 L 84.06056902814592 -0.5 L 77.76270638907296 -0.5 Z"/><text text-anchor="middle" pointer-events="none" font-size="8px" fill="#000000" x="54.53028451407296" y="3" transform="rotate(180 54.53028451407296 0)" font-family="sans-serif">twowheeler</text></g><g class="relationship" transform="translate(277.4844729337308 83.9362826594911) rotate(188.20324154951265)"><path class="outline" fill="#A5ABB6" stroke="none" d="M 21.40063509461097,-12.933012701892217 L 21.90063509461097,-12.06698729810778 A 68.8214387341434 68.8214387341434 0 0 1 44.79568231422105,-20.317031637210064 L 44.628355499215814,-21.30293312162938 A 69.8214387341434 69.8214387341434 0 0 0 21.40063509461097,-12.933012701892217 Z M 64.03271758171732,-21.859056112947243 L 63.92213029993077,-20.86518969681927 A 68.8214387341434 68.8214387341434 0 0 1 87.25209673700387,-13.939939894077744 L 85.90335674357631,-11.260219679180482 L 93.72956723733542,-11.23949994522965 L 89.05041672824062,-17.512900180607428 L 87.70167673481306,-14.833179965710164 A 69.8214387341434 69.8214387341434 0 0 0 64.03271758171732,-21.859056112947243"/><text text-anchor="middle" pointer-events="none" font-size="8px" fill="#000000" x="54.325438981162534" y="-18.758859744277842" transform="rotate(180 54.325438981162534 -21.758859744277842)" font-family="sans-serif">trek</text></g><g class="relationship" transform="translate(174.10221870832882 270.8515203488719) rotate(254.6625367278084)"><path class="outline" fill="#A5ABB6" stroke="none" d="M 21.40063509461097,12.933012701892217 L 21.90063509461097,12.06698729810778 A 65.30751664997787 65.30751664997787 0 0 0 23.33216411468242,12.869668470700596 L 22.854083934842542,13.747984667547875 A 66.30751664997787 66.30751664997787 0 0 1 21.40063509461097,12.933012701892217 Z M 82.76851574986497,15.514435788455039 L 82.3430116176683,14.609479306913762 A 65.30751664997787 65.30751664997787 0 0 0 83.81934374002329,13.892530309672944 L 82.4750137843795,11.210595006508681 L 90.3012477733472,11.202749630364835 L 85.61178368088166,17.468444047225297 L 84.26745372523787,14.786508744061033 A 66.30751664997787 66.30751664997787 0 0 1 82.76851574986497,15.514435788455039"/><text text-anchor="middle" pointer-events="none" font-size="8px" fill="#000000" x="52.615039775830724" y="24.28795279762717" transform="rotate(180 52.615039775830724 21.28795279762717)" font-family="sans-serif">PublicTransport</text></g><g class="relationship" transform="translate(144.30569210711565 162.2129030986906) rotate(247.01163296934521)"><path class="outline" fill="#A5ABB6" stroke="none" d="M 24.018736134675446,-6.953439040707552 L 24.277555179777966,-5.987513214418485 A 176.49964512815743 176.49964512815743 0 0 1 44.73966461799901,-10.190552327677608 L 44.59677843736975,-11.18029145461216 A 177.49964512815743 177.49964512815743 0 0 0 24.018736134675446,-6.953439040707552 Z M 91.05578596486303,-11.743403301549478 L 90.93693073471962,-10.750491707162752 A 176.49964512815743 176.49964512815743 0 0 1 111.49490079578963,-7.044641276091697 L 110.78890714963501,-4.128895578746111 L 118.41597303062177,-5.883280384621846 L 112.43622565732912,-10.932302205885813 L 111.7302320111745,-8.016556508540226 A 177.49964512815743 177.49964512815743 0 0 0 91.05578596486303,-11.743403301549478"/><text text-anchor="middle" pointer-events="none" font-size="8px" fill="#000000" x="67.81383741332554" y="-9.488592762319598" transform="rotate(180 67.81383741332554 -12.488592762319598)" font-family="sans-serif">twowheeler</text></g><g class="relationship" transform="translate(88.56962037521755 30.8327889783057) rotate(537.0526348351289)"><path class="outline" fill="#A5ABB6" stroke="none" d="M 24.018736134675446,-6.953439040707552 L 24.277555179777966,-5.987513214418485 A 96.00677196578798 96.00677196578798 0 0 1 37.936737705446454,-8.604607584837836 L 37.82019177552101,-9.597792887899573 A 97.00677196578798 97.00677196578798 0 0 0 24.018736134675446,-6.953439040707552 Z M 57.22113128783658,-9.920503357602882 L 57.137681494585514,-8.923991374731443 A 96.00677196578798 96.00677196578798 0 0 1 70.87634774603417,-6.7626261014576965 L 70.19669532952194,-3.840628053421201 L 77.8076185942047,-5.663770137601908 L 71.78255096805047,-10.65862349883969 L 71.10289855153825,-7.736625450803194 A 97.00677196578798 97.00677196578798 0 0 0 57.22113128783658,-9.920503357602882"/><text text-anchor="middle" pointer-events="none" font-size="8px" fill="#000000" x="47.520888275483046" y="-6.745516576073598" transform="rotate(180 47.520888275483046 -9.745516576073598)" font-family="sans-serif">trek</text></g><g class="relationship" transform="translate(-13.452847044068053 36.08558395377733) rotate(421.1155889022097)"><path class="outline" fill="#A5ABB6" stroke="none" d="M 24.018736134675446,6.953439040707552 L 24.277555179777966,5.987513214418485 A 91.93125031722136 91.93125031722136 0 0 0 36.924873943549066,8.441777808668434 L 36.8036285605052,9.43440037394214 A 92.93125031722136 92.93125031722136 0 0 1 24.018736134675446,6.953439040707552 Z M 56.20594705154731,9.76326438199871 L 56.118411013650295,8.767103028567803 A 91.93125031722136 91.93125031722136 0 0 0 68.84163922171078,6.742862287786499 L 68.16383296274844,3.8204354409156536 L 75.77360290756981,5.648385491352844 L 69.74538090032723,10.639431416947627 L 69.0675746413649,7.7170045700767815 A 92.93125031722136 92.93125031722136 0 0 1 56.20594705154731,9.76326438199871"/><text text-anchor="middle" pointer-events="none" font-size="8px" fill="#000000" x="46.50465411247618" y="12.606720029933584" font-family="sans-serif">trek</text></g><g class="relationship" transform="translate(174.10221870832882 270.8515203488719) rotate(254.6625367278084)"><path class="outline" fill="#A5ABB6" stroke="none" d="M 25 0.5 L 43.157385566524695 0.5 L 43.157385566524695 -0.5 L 25 -0.5 Z M 62.493323066524695 0.5 L 80.65070863304939 0.5 L 80.65070863304939 3.5 L 87.65070863304939 0 L 80.65070863304939 -3.5 L 80.65070863304939 -0.5 L 62.493323066524695 -0.5 Z"/><text text-anchor="middle" pointer-events="none" font-size="8px" fill="#000000" x="52.825354316524695" y="3" transform="rotate(180 52.825354316524695 0)" font-family="sans-serif">trek</text></g><g class="relationship" transform="translate(174.10221870832882 270.8515203488719) rotate(254.6625367278084)"><path class="outline" fill="#A5ABB6" stroke="none" d="M 21.40063509461097,-12.933012701892217 L 21.90063509461097,-12.06698729810778 A 65.30751664997787 65.30751664997787 0 0 1 41.78995747991479,-19.556976681873664 L 41.594506227219064,-20.5376900996567 A 66.30751664997787 66.30751664997787 0 0 0 21.40063509461097,-12.933012701892217 Z M 63.66063237415229,-21.188263460456824 L 63.52329894025788,-20.197738585486604 A 65.30751664997787 65.30751664997787 0 0 1 83.81934374002329,-13.892530309672944 L 82.4750137843795,-11.210595006508681 L 90.3012477733472,-11.202749630364835 L 85.61178368088166,-17.468444047225297 L 84.26745372523787,-14.786508744061033 A 66.30751664997787 66.30751664997787 0 0 0 63.66063237415229,-21.188263460456824"/><text text-anchor="middle" pointer-events="none" font-size="8px" fill="#000000" x="52.61503977583074" y="-18.28795279762717" transform="rotate(180 52.61503977583074 -21.28795279762717)" font-family="sans-serif">road</text></g><g class="relationship" transform="translate(144.30569210711565 162.2129030986906) rotate(247.01163296934521)"><path class="outline" fill="#A5ABB6" stroke="none" d="M 24.018736134675446,6.953439040707552 L 24.277555179777966,5.987513214418485 A 176.49964512815743 176.49964512815743 0 0 0 58.18793029493522,11.608637091923896 L 58.12123840731528,12.606410709597611 A 177.49964512815743 177.49964512815743 0 0 1 24.018736134675446,6.953439040707552 Z M 77.50073333761848,12.841302149679649 L 77.45824475382784,11.842205197303429 A 176.49964512815743 176.49964512815743 0 0 0 111.49490079578963,7.044641276091697 L 110.78890714963501,4.128895578746111 L 118.41597303062177,5.883280384621846 L 112.43622565732912,10.932302205885813 L 111.7302320111745,8.016556508540226 A 177.49964512815743 177.49964512815743 0 0 1 77.50073333761848,12.841302149679649"/><text text-anchor="middle" pointer-events="none" font-size="8px" fill="#000000" x="67.81383741332563" y="15.488592762319598" transform="rotate(180 67.81383741332563 12.488592762319598)" font-family="sans-serif">trek</text></g><g class="relationship" transform="translate(88.56962037521755 30.8327889783057) rotate(537.0526348351289)"><path class="outline" fill="#A5ABB6" stroke="none" d="M 24.018736134675446,6.953439040707552 L 24.277555179777966,5.987513214418485 A 96.00677196578798 96.00677196578798 0 0 0 24.688947473837565,6.096768580327648 L 24.434413462859577,7.063832403069171 A 97.00677196578798 97.00677196578798 0 0 1 24.018736134675446,6.953439040707552 Z M 70.68377968403534,7.833133017982249 L 70.46154938996578,6.858138814718586 A 96.00677196578798 96.00677196578798 0 0 0 70.87634774603417,6.7626261014576965 L 70.19669532952194,3.840628053421201 L 77.8076185942047,5.663770137601908 L 71.78255096805047,10.65862349883969 L 71.10289855153825,7.736625450803194 A 97.00677196578798 97.00677196578798 0 0 1 70.68377968403534,7.833133017982249"/><text text-anchor="middle" pointer-events="none" font-size="8px" fill="#000000" x="47.52088827548309" y="12.745516576073598" transform="rotate(180 47.52088827548309 9.745516576073598)" font-family="sans-serif">twowheeler</text></g><g class="relationship" transform="translate(-13.452847044068053 36.08558395377733) rotate(421.1155889022097)"><path class="outline" fill="#A5ABB6" stroke="none" d="M 24.018736134675446,-6.953439040707552 L 24.277555179777966,-5.987513214418485 A 91.93125031722136 91.93125031722136 0 0 1 26.271436057373183,-6.497919875905339 L 26.034305838112964,-7.469397749618167 A 92.93125031722136 92.93125031722136 0 0 0 24.018736134675446,-6.953439040707552 Z M 67.03567702913125,-8.164359811596427 L 66.83160613411548,-7.185403699297481 A 91.93125031722136 91.93125031722136 0 0 1 68.84163922171078,-6.742862287786499 L 68.16383296274844,-3.8204354409156536 L 75.77360290756981,-5.648385491352844 L 69.74538090032723,-10.639431416947627 L 69.0675746413649,-7.7170045700767815 A 92.93125031722136 92.93125031722136 0 0 0 67.03567702913125,-8.164359811596427"/><text text-anchor="middle" pointer-events="none" font-size="8px" fill="#000000" x="46.504654112476175" y="-6.606720029933584" font-family="sans-serif">twowhe…</text></g><g class="relationship" transform="translate(144.30569210711565 162.2129030986906) rotate(280.92507794852037)"><path class="outline" fill="#A5ABB6" stroke="none" d="M 25 0.5 L 35.12566960215299 0.5 L 35.12566960215299 -0.5 L 25 -0.5 Z M 54.46160710215299 0.5 L 64.58727670430598 0.5 L 64.58727670430598 3.5 L 71.58727670430598 0 L 64.58727670430598 -3.5 L 64.58727670430598 -0.5 L 54.46160710215299 -0.5 Z"/><text text-anchor="middle" pointer-events="none" font-size="8px" fill="#000000" x="44.79363835215299" y="3" font-family="sans-serif">trek</text></g><g class="relationship" transform="translate(144.30569210711565 162.2129030986906) rotate(377.19858791584045)"><path class="outline" fill="#A5ABB6" stroke="none" d="M 25 0.5 L 44.2979588562279 0.5 L 44.2979588562279 -0.5 L 25 -0.5 Z M 63.6338963562279 0.5 L 82.9318552124558 0.5 L 82.9318552124558 3.5 L 89.9318552124558 0 L 82.9318552124558 -3.5 L 82.9318552124558 -0.5 L 63.6338963562279 -0.5 Z"/><text text-anchor="middle" pointer-events="none" font-size="8px" fill="#000000" x="53.9659276062279" y="3" font-family="sans-serif">trek</text></g><g class="relationship" transform="translate(88.56962037521755 30.8327889783057) rotate(223.89621160097278)"><path class="outline" fill="#A5ABB6" stroke="none" d="M 24.018736134675446,-6.953439040707552 L 24.277555179777966,-5.987513214418485 A 138.72993495704452 138.72993495704452 0 0 1 35.242873001912926,-8.45431558367875 L 35.06309470476094,-9.438022737192 A 139.72993495704452 139.72993495704452 0 0 0 24.018736134675446,-6.953439040707552 Z M 81.47422272778108,-10.083057038427569 L 81.32185224065654,-9.09473359205316 A 138.72993495704452 138.72993495704452 0 0 1 92.3514900377998,-6.93362301338138 L 91.65586542926961,-4.015386147736783 L 99.27664682572558,-5.796871737751678 L 93.27898951584008,-10.82460550090751 L 92.58336490730989,-7.906368635262913 A 139.72993495704452 139.72993495704452 0 0 0 81.47422272778108,-10.083057038427569"/><text text-anchor="middle" pointer-events="none" font-size="8px" fill="#000000" x="58.24863636780658" y="-8.201176108432946" transform="rotate(180 58.24863636780658 -11.201176108432946)" font-family="sans-serif">twowheeler</text></g><g class="relationship" transform="translate(-0.4927677113484325 -54.862520631228946) rotate(458.1100320409467)"><path class="outline" fill="#A5ABB6" stroke="none" d="M 21.40063509461097,12.933012701892217 L 21.90063509461097,12.06698729810778 A 43.7223559431967 43.7223559431967 0 0 0 32.76069184965386,16.518031399921455 L 32.509078665065914,17.485859279940165 A 44.7223559431967 44.7223559431967 0 0 1 21.40063509461097,12.933012701892217 Z M 51.895861865565074,18.178746061650195 L 51.713983057353644,17.19542510737149 A 43.7223559431967 43.7223559431967 0 0 0 62.864087009682514,13.531027725631482 L 61.55338861308029,10.832496696878177 L 69.37910914287393,10.922486638351849 L 64.61168487181881,17.129069097302555 L 63.30098647521658,14.43053806854925 A 44.7223559431967 44.7223559431967 0 0 1 51.895861865565074,18.178746061650195"/><text text-anchor="middle" pointer-events="none" font-size="8px" fill="#000000" x="42.18230735533029" y="21.3964553937113" transform="rotate(180 42.18230735533029 18.3964553937113)" font-family="sans-serif">trek</text></g><g class="relationship" transform="translate(88.56962037521755 30.8327889783057) rotate(223.89621160097278)"><path class="outline" fill="#A5ABB6" stroke="none" d="M 24.018736134675446,6.953439040707552 L 24.277555179777966,5.987513214418485 A 138.72993495704452 138.72993495704452 0 0 0 48.635650794986795,10.233165097854766 L 48.55241098318206,11.229694642690617 A 139.72993495704452 139.72993495704452 0 0 1 24.018736134675446,6.953439040707552 Z M 67.9403240306748,11.49915305660383 L 67.88481109022604,10.500695088814126 A 138.72993495704452 138.72993495704452 0 0 0 92.3514900377998,6.93362301338138 L 91.65586542926961,4.015386147736783 L 99.27664682572558,5.796871737751678 L 93.27898951584008,10.82460550090751 L 92.58336490730989,7.906368635262913 A 139.72993495704452 139.72993495704452 0 0 1 67.9403240306748,11.49915305660383"/><text text-anchor="middle" pointer-events="none" font-size="8px" fill="#000000" x="58.24863636780658" y="14.201176108432946" transform="rotate(180 58.24863636780658 11.201176108432946)" font-family="sans-serif">trek</text></g><g class="relationship" transform="translate(-0.4927677113484325 -54.862520631228946) rotate(458.1100320409467)"><path class="outline" fill="#A5ABB6" stroke="none" d="M 25 0.5 L 26.32015260790906 0.5 L 26.32015260790906 -0.5 L 25 -0.5 Z M 58.54671510790906 0.5 L 59.86686771581812 0.5 L 59.86686771581812 3.5 L 66.86686771581812 0 L 59.86686771581812 -3.5 L 59.86686771581812 -0.5 L 58.54671510790906 -0.5 Z"/><text text-anchor="middle" pointer-events="none" font-size="8px" fill="#000000" x="42.43343385790906" y="3" transform="rotate(180 42.43343385790906 0)" font-family="sans-serif">twow…</text></g><g class="relationship" transform="translate(-0.4927677113484325 -54.862520631228946) rotate(458.1100320409467)"><path class="outline" fill="#A5ABB6" stroke="none" d="M 21.40063509461097,-12.933012701892217 L 21.90063509461097,-12.06698729810778 A 43.7223559431967 43.7223559431967 0 0 1 31.485713691270618,-16.1658933228056 L 31.20493972312289,-17.12566724348202 A 44.7223559431967 44.7223559431967 0 0 0 21.40063509461097,-12.933012701892217 Z M 53.22238714814012,-17.91257439202832 L 53.010846993727256,-16.935205084616335 A 43.7223559431967 43.7223559431967 0 0 1 62.864087009682514,-13.531027725631482 L 61.55338861308029,-10.832496696878177 L 69.37910914287393,-10.922486638351849 L 64.61168487181881,-17.129069097302555 L 63.30098647521658,-14.43053806854925 A 44.7223559431967 44.7223559431967 0 0 0 53.22238714814012,-17.91257439202832"/><text text-anchor="middle" pointer-events="none" font-size="8px" fill="#000000" x="42.18230735533029" y="-15.3964553937113" transform="rotate(180 42.18230735533029 -18.3964553937113)" font-family="sans-serif">road</text></g><g class="relationship" transform="translate(-0.4927677113484325 -54.862520631228946) rotate(482.57203267457925)"><path class="outline" fill="#A5ABB6" stroke="none" d="M 25 0.5 L 52.074442946163714 0.5 L 52.074442946163714 -0.5 L 25 -0.5 Z M 71.41038044616371 0.5 L 98.48482339232743 0.5 L 98.48482339232743 3.5 L 105.48482339232743 0 L 98.48482339232743 -3.5 L 98.48482339232743 -0.5 L 71.41038044616371 -0.5 Z"/><text text-anchor="middle" pointer-events="none" font-size="8px" fill="#000000" x="61.742411696163714" y="3" transform="rotate(180 61.742411696163714 0)" font-family="sans-serif">trek</text></g><g class="relationship" transform="translate(-70.74051216843613 55.09903417052251) rotate(393.0172756296259)"><path class="outline" fill="#A5ABB6" stroke="none" d="M 25 0.5 L 49.833051386009714 0.5 L 49.833051386009714 -0.5 L 25 -0.5 Z M 69.16898888600971 0.5 L 94.00204027201943 0.5 L 94.00204027201943 3.5 L 101.00204027201943 0 L 94.00204027201943 -3.5 L 94.00204027201943 -0.5 L 69.16898888600971 -0.5 Z"/><text text-anchor="middle" pointer-events="none" font-size="8px" fill="#000000" x="59.501020136009714" y="3" font-family="sans-serif">trek</text></g></g><g class="layer nodes"><g class="node" transform="translate(174.10221870832882,270.8515203488719)"><circle class="outline" cx="0" cy="0" r="25" fill="#F16667" stroke="#eb2728" stroke-width="2px"/><text text-anchor="middle" pointer-events="none" font-family="sans-serif" dy="1.5625" font-size="25" fill="#FFFFFF"/><text text-anchor="middle" pointer-events="none" y="5" font-size="10px" fill="#FFFFFF" font-family="sans-serif"> Darjeeling</text></g><g class="node" transform="translate(254.09844408615254,196.19647200259757)"><circle class="outline" cx="0" cy="0" r="25" fill="#D9C8AE" stroke="#c0a378" stroke-width="2px"/><text text-anchor="middle" pointer-events="none" font-family="sans-serif" dy="1.5625" font-size="25" fill="#604A0E"/><text text-anchor="middle" pointer-events="none" y="5" font-size="10px" fill="#604A0E" font-family="sans-serif"> Tumbling</text></g><g class="node" transform="translate(277.4844729337308,83.9362826594911)"><circle class="outline" cx="0" cy="0" r="25" fill="#D9C8AE" stroke="#c0a378" stroke-width="2px"/><text text-anchor="middle" pointer-events="none" font-family="sans-serif" dy="1.5625" font-size="25" fill="#604A0E"/><text text-anchor="middle" pointer-events="none" y="5" font-size="10px" fill="#604A0E" font-family="sans-serif"> Gairibus</text></g><g class="node" transform="translate(162.61141707931637,67.37618840234362)"><circle class="outline" cx="0" cy="0" r="25" fill="#D9C8AE" stroke="#c0a378" stroke-width="2px"/><text text-anchor="middle" pointer-events="none" font-family="sans-serif" dy="1.5625" font-size="25" fill="#604A0E"/><text text-anchor="middle" pointer-events="none" y="5" font-size="10px" fill="#604A0E" font-family="sans-serif"> BhikeBh…</text></g><g class="node" transform="translate(34.91299393784724,123.75652320239102)"><circle class="outline" cx="0" cy="0" r="25" fill="#8DCC93" stroke="#5db665" stroke-width="2px"/><text text-anchor="middle" pointer-events="none" font-family="sans-serif" dy="1.5625" font-size="25" fill="#604A0E"/><text text-anchor="middle" pointer-events="none" y="5" font-size="10px" fill="#604A0E" font-family="sans-serif"> Sandak…</text></g><g class="node" transform="translate(144.30569210711565,162.2129030986906)"><circle class="outline" cx="0" cy="0" r="25" fill="#F16667" stroke="#eb2728" stroke-width="2px"/><text text-anchor="middle" pointer-events="none" font-family="sans-serif" dy="1.5625" font-size="25" fill="#FFFFFF"/><text text-anchor="middle" pointer-events="none" y="5" font-size="10px" fill="#FFFFFF" font-family="sans-serif"> Rimbik</text></g><g class="node" transform="translate(88.56962037521755,30.8327889783057)"><circle class="outline" cx="0" cy="0" r="25" fill="#D9C8AE" stroke="#c0a378" stroke-width="2px"/><text text-anchor="middle" pointer-events="none" font-family="sans-serif" dy="1.5625" font-size="25" fill="#604A0E"/><text text-anchor="middle" pointer-events="none" y="5" font-size="10px" fill="#604A0E" font-family="sans-serif"> Sirikhola</text></g><g class="node" transform="translate(-13.452847044068053,36.08558395377733)"><circle class="outline" cx="0" cy="0" r="25" fill="#D9C8AE" stroke="#c0a378" stroke-width="2px"/><text text-anchor="middle" pointer-events="none" font-family="sans-serif" dy="1.5625" font-size="25" fill="#604A0E"/><text text-anchor="middle" pointer-events="none" y="5" font-size="10px" fill="#604A0E" font-family="sans-serif"> Gurdum</text></g><g class="node" transform="translate(-0.4927677113484325,-54.862520631228946)"><circle class="outline" cx="0" cy="0" r="25" fill="#D9C8AE" stroke="#c0a378" stroke-width="2px"/><text text-anchor="middle" pointer-events="none" font-family="sans-serif" dy="1.5625" font-size="25" fill="#604A0E"/><text text-anchor="middle" pointer-events="none" y="5" font-size="10px" fill="#604A0E" font-family="sans-serif"> Rammam</text></g><g class="node" transform="translate(-70.74051216843613,55.09903417052251)"><circle class="outline" cx="0" cy="0" r="25" fill="#8DCC93" stroke="#5db665" stroke-width="2px"/><text text-anchor="middle" pointer-events="none" font-family="sans-serif" dy="1.5625" font-size="25" fill="#604A0E"/><text text-anchor="middle" pointer-events="none" y="5" font-size="10px" fill="#604A0E" font-family="sans-serif"> Sabargr…</text></g></g></svg>