<svg xmlns="http://www.w3.org/2000/svg" width="198.9208984375" height="212.9202423095703" viewBox="25.323028564453125 -20.482646942138672 198.9208984375 212.9202423095703"><title>Neo4j Graph Visualization</title><desc>Created using Neo4j (http://www.neo4j.com/)</desc><g class="layer relationships"><g class="relationship" transform="translate(132.9353164101445 163.4375931347373) rotate(284.47574622692355)"><path class="outline" fill="#A5ABB6" stroke="none" d="M 5.987513214418485,-24.277555179777966 L 6.953439040707552,-24.018736134675446 A 45.89005147255451 45.89005147255451 0 0 1 10.89584530327837,-33.93672304524994 L 10.015829301364391,-34.411667080242836 A 46.89005147255451 46.89005147255451 0 0 0 5.987513214418485,-24.277555179777966 Z M 89.44790522704096,-39.37889140103881 L 88.63391421827444,-38.79801392889234 A 45.89005147255451 45.89005147255451 0 0 1 93.7812024526322,-29.448444135050167 L 91.00273242518395,-28.317027188663147 L 96.8842536654433,-23.153916895402098 L 97.48582915589654,-30.9570000635662 L 94.70735912844829,-29.82558311717918 A 46.89005147255451 46.89005147255451 0 0 0 89.44790522704096,-39.37889140103881"/><text text-anchor="middle" pointer-events="none" font-size="8px" fill="#000000" x="48.38451399756366" y="-55.44112860490481" font-family="sans-serif">CHEAPEST_BUSINESS</text></g><g class="relationship" transform="translate(132.9353164101445 163.4375931347373) rotate(284.47574622692355)"><path class="outline" fill="#A5ABB6" stroke="none" d="M 9.265372650015623,-23.225048324090576 L 10.18659379640068,-22.83600899516225 A 44.607346772959865 44.607346772959865 0 0 1 25.96158111893195,-42.20803541362888 L 25.39400098605128,-43.031353573734165 A 45.607346772959865 45.607346772959865 0 0 0 9.265372650015623,-23.225048324090576 Z M 72.55923120171369,-45.820773969929036 L 72.09265272741956,-44.9362941638705 A 44.607346772959865 44.607346772959865 0 0 1 90.04106501908623,-27.558718706053106 L 87.43423612908822,-26.073981982498488 L 93.93992218904668,-21.723574083316834 L 93.51683687241692,-29.538367670792596 L 90.9100079824189,-28.053630947237977 A 45.607346772959865 45.607346772959865 0 0 0 72.55923120171369,-45.820773969929036"/><text text-anchor="middle" pointer-events="none" font-size="8px" fill="#000000" x="48.616763999539195" y="-47.51066360355378" font-family="sans-serif">CHEAPEST</text></g><g class="relationship" transform="translate(132.9353164101445 163.4375931347373) rotate(284.47574622692355)"><path class="outline" fill="#A5ABB6" stroke="none" d="M 12.367599250055083,-21.732291383791928 L 13.226653204424967,-21.22040633470233 A 44.29660271020978 44.29660271020978 0 0 1 26.16098214748852,-35.0317000762428 L 25.593921893576447,-35.855376389143174 A 45.29660271020978 45.29660271020978 0 0 0 12.367599250055083,-21.732291383791928 Z M 72.74146965636992,-38.43523560703839 L 72.26766713157815,-37.55460448818049 A 44.29660271020978 44.29660271020978 0 0 1 86.63173653039497,-25.23704749304301 L 84.23751827619479,-23.429364182489245 L 91.24870063072046,-19.951818785001542 L 89.82402753599523,-27.6472919071147 L 87.42980928179504,-25.839608596560932 A 45.29660271020978 45.29660271020978 0 0 0 72.74146965636992,-38.43523560703839"/><text text-anchor="middle" pointer-events="none" font-size="8px" fill="#000000" x="48.832268140275566" y="-40.275326705487856" font-family="sans-serif">CHEAPEST</text></g><g class="relationship" transform="translate(132.9353164101445 163.4375931347373) rotate(284.47574622692355)"><path class="outline" fill="#A5ABB6" stroke="none" d="M 15.235387732235946,-19.82758080675589 L 16.015990413247987,-19.20255324384621 A 45.17513886682444 45.17513886682444 0 0 1 26.25704523600057,-28.578728301140053 L 25.70313925320883,-29.4113075239336 A 46.17513886682444 46.17513886682444 0 0 0 15.235387732235946,-19.82758080675589 Z M 72.94568273177786,-31.74348243495656 L 72.47647227923363,-30.86039605683535 A 45.17513886682444 45.17513886682444 0 0 1 83.59121133354269,-22.538470898420368 L 81.44547007742743,-20.441855897566622 L 88.8409365448873,-17.881177134293743 L 86.45219967502969,-25.33395756622536 L 84.30645841891443,-23.237342565371616 A 46.17513886682444 46.17513886682444 0 0 0 72.94568273177786,-31.74348243495656"/><text text-anchor="middle" pointer-events="none" font-size="8px" fill="#000000" x="49.027768957973734" y="-33.5864315003024" font-family="sans-serif">CHEAPEST</text></g><g class="relationship" transform="translate(132.9353164101445 163.4375931347373) rotate(284.47574622692355)"><path class="outline" fill="#A5ABB6" stroke="none" d="M 17.814376783534897,-17.547021964260857 L 18.501731218904354,-16.82069980421207 A 47.68732406776366 47.68732406776366 0 0 1 26.238329723151516,-22.767641499511072 L 25.71321124158088,-23.61867062963116 A 48.68732406776366 48.68732406776366 0 0 0 17.814376783534897,-17.547021964260857 Z M 73.17860874249243,-25.668805683977872 L 72.72882465117061,-24.775668364640133 A 47.68732406776366 47.68732406776366 0 0 1 80.94937705007469,-19.517951160370046 L 79.08287147218998,-17.169301137968827 L 86.74064469865833,-15.55421314903926 L 83.43805115392097,-22.649484523571676 L 81.57154557603626,-20.300834501170456 A 48.68732406776366 48.68732406776366 0 0 0 73.17860874249243,-25.668805683977872"/><text text-anchor="middle" pointer-events="none" font-size="8px" fill="#000000" x="49.20044698005023" y="-27.326778116052054" font-family="sans-serif">CHEAPEST</text></g><g class="relationship" transform="translate(132.9353164101445 163.4375931347373) rotate(284.47574622692355)"><path class="outline" fill="#A5ABB6" stroke="none" d="M 20.055679524053907,-14.933844743683553 L 20.636756339455843,-14.119996026413359 A 52.7349702760562 52.7349702760562 0 0 1 20.871750222873086,-14.286810905819678 L 20.295129537477237,-15.103822891762121 A 53.7349702760562 53.7349702760562 0 0 0 20.055679524053907,-14.933844743683553 Z M 78.99856964090638,-17.235589352819957 L 78.48272782372992,-16.378905502352303 A 52.7349702760562 52.7349702760562 0 0 1 78.72920227228255,-16.229574743814293 L 77.16765532151297,-13.668018357446385 L 84.96642499893593,-13.01289125641324 L 80.81126487330866,-19.6449832589715 L 79.24971792253908,-17.083426872603592 A 53.7349702760562 53.7349702760562 0 0 0 78.99856964090638,-17.235589352819957"/><text text-anchor="middle" pointer-events="none" font-size="8px" fill="#000000" x="49.34791479037153" y="-21.401612092267072" font-family="sans-serif">CHEAPEST_…</text></g><g class="relationship" transform="translate(132.9353164101445 163.4375931347373) rotate(284.47574622692355)"><path class="outline" fill="#A5ABB6" stroke="none" d="M 21.916810198440235,-12.037584090071652 L 22.380594600123676,-11.151635994100372 A 62.31177724554901 62.31177724554901 0 0 1 25.879273762391012,-12.846280436267257 L 25.471637320482177,-13.759424746454812 A 63.31177724554901 63.31177724554901 0 0 0 21.916810198440235,-12.037584090071652 Z M 73.71158837027504,-15.15134086309046 L 73.35728204026171,-14.216211447173883 A 62.31177724554901 62.31177724554901 0 0 1 76.9478535999557,-12.72612032896423 L 75.71206657187795,-9.992472505773621 L 83.5323296920801,-10.298225233981249 L 78.59556963739271,-16.37098409321838 L 77.35978260931496,-13.637336270027768 A 63.31177724554901 63.31177724554901 0 0 0 73.71158837027504,-15.15134086309046"/><text text-anchor="middle" pointer-events="none" font-size="8px" fill="#000000" x="49.468207144117216" y="-15.73228204960919" font-family="sans-serif">CHEAPEST</text></g><g class="relationship" transform="translate(132.9353164101445 163.4375931347373) rotate(284.47574622692355)"><path class="outline" fill="#A5ABB6" stroke="none" d="M 23.36248952867312,-8.913141030110477 L 23.700190098026855,-7.971887437576477 A 81.66890237269962 81.66890237269962 0 0 1 25.81594857921111,-8.698424028283839 L 25.50415454734858,-9.64857374369447 A 82.66890237269962 82.66890237269962 0 0 0 23.36248952867312,-8.913141030110477 Z M 73.74511640611033,-10.65863117075142 L 73.47336619734322,-9.696263349159778 A 81.66890237269962 81.66890237269962 0 0 1 75.61768119660265,-9.058923132092875 L 74.72366197159506,-6.195231524164948 L 82.44863148593573,-7.450160208396511 L 76.80970682994608,-12.877178609330114 L 75.9156876049385,-10.013487001402186 A 82.66890237269962 82.66890237269962 0 0 0 73.74511640611033,-10.65863117075142"/><text text-anchor="middle" pointer-events="none" font-size="8px" fill="#000000" x="49.5597695897987" y="-10.251636978367856" font-family="sans-serif">CONNEC…</text></g><g class="relationship" transform="translate(132.9353164101445 163.4375931347373) rotate(284.47574622692355)"><path class="outline" fill="#A5ABB6" stroke="none" d="M 24.365313462086043,-5.619741977554534 L 24.57052880428168,-4.6410251322271785 A 130.15253069158192 130.15253069158192 0 0 1 25.557352167966965,-4.843956162711308 L 25.35971887860151,-5.824232186561019 A 131.15253069158192 131.15253069158192 0 0 0 24.365313462086043,-5.619741977554534 Z M 73.9280637422586,-6.440761675551883 L 73.75537749140969,-5.455784793199925 A 130.15253069158192 130.15253069158192 0 0 1 74.74703408189016,-5.277968706174258 L 74.20611776556319,-2.3271366982938937 L 81.72246148633218,-4.507635969391393 L 75.4682558369928,-9.212411383348078 L 74.92733952066583,-6.261579375467713 A 131.15253069158192 131.15253069158192 0 0 0 73.9280637422586,-6.440761675551883"/><text text-anchor="middle" pointer-events="none" font-size="8px" fill="#000000" x="49.621447459463255" y="-4.900556226335354" font-family="sans-serif">CONNEC…</text></g><g class="relationship" transform="translate(132.9353164101445 163.4375931347373) rotate(284.47574622692355)"><path class="outline" fill="#A5ABB6" stroke="none" d="M 24.906272637950263,-2.219816047353928 L 24.97511272569896,-1.2221883400809435 A 382.1132869282435 382.1132869282435 0 0 1 25.37230396120603,-1.2493881453352742 L 25.304503332824737,-2.2470870351768326 A 383.1132869282435 383.1132869282435 0 0 0 24.906272637950263,-2.219816047353928 Z M 74.00278538709739,-2.454214672199214 L 73.9434740522139,-1.455975139043801 A 382.1132869282435 382.1132869282435 0 0 1 74.34088229008478,-1.4321549912303455 L 74.15982820363031,1.5623765944735253 L 81.35829833780289,-1.5087840537872328 L 74.58228773869074,-5.42486377216884 L 74.40123365223627,-2.430332186464969 A 383.1132869282435 383.1132869282435 0 0 0 74.00278538709739,-2.454214672199214"/><text text-anchor="middle" pointer-events="none" font-size="8px" fill="#000000" x="49.6524765727625" y="0.3747878603714412" font-family="sans-serif">CONNEC…</text></g><g class="relationship" transform="translate(159.51032575307588 60.49991752604878) rotate(464.47574622692355)"><path class="outline" fill="#A5ABB6" stroke="none" d="M 24.906272637950263,-2.219816047353928 L 24.97511272569896,-1.2221883400809435 A 382.1132869282435 382.1132869282435 0 0 1 25.37230396120603,-1.2493881453352742 L 25.304503332824737,-2.2470870351768326 A 383.1132869282435 383.1132869282435 0 0 0 24.906272637950263,-2.219816047353928 Z M 74.00278538709739,-2.454214672199214 L 73.9434740522139,-1.455975139043801 A 382.1132869282435 382.1132869282435 0 0 1 74.34088229008478,-1.4321549912303455 L 74.15982820363031,1.5623765944735253 L 81.35829833780289,-1.5087840537872328 L 74.58228773869074,-5.42486377216884 L 74.40123365223627,-2.430332186464969 A 383.1132869282435 383.1132869282435 0 0 0 74.00278538709739,-2.454214672199214"/><text text-anchor="middle" pointer-events="none" font-size="8px" fill="#000000" x="49.6524765727625" y="0.3747878603714412" transform="rotate(180 49.6524765727625 -2.625212139628559)" font-family="sans-serif">CONNEC…</text></g><g class="relationship" transform="translate(159.51032575307588 60.49991752604878) rotate(188.35559030243485)"><path class="outline" fill="#A5ABB6" stroke="none" d="M 5.987513214418485,24.277555179777966 L 6.953439040707552,24.018736134675446 A 45.89170397457289 45.89170397457289 0 0 0 21.482015600602047,47.04157515126077 L 20.83267371654237,47.802071776898146 A 46.89170397457289 46.89170397457289 0 0 1 5.987513214418485,24.277555179777966 Z M 77.05040235818208,51.31750433096117 L 76.50085992206172,50.48203852621336 A 45.89170397457289 45.89170397457289 0 0 0 93.78439061205268,29.448488656339684 L 91.00591656497163,28.317081581190756 L 96.8874194619137,23.15395039234206 L 97.48902267482741,30.957031423204924 L 94.71054862774636,29.825624348055996 A 46.89170397457289 46.89170397457289 0 0 1 77.05040235818208,51.31750433096117"/><text text-anchor="middle" pointer-events="none" font-size="8px" fill="#000000" x="48.3860893040364" y="61.44235532957367" transform="rotate(180 48.3860893040364 58.44235532957367)" font-family="sans-serif">CONNECTION</text></g><g class="relationship" transform="translate(159.51032575307588 60.49991752604878) rotate(188.35559030243485)"><path class="outline" fill="#A5ABB6" stroke="none" d="M 7.275464296324875,23.923160729153288 L 8.226190063746978,23.61312764195185 A 45.28669836640453 45.28669836640453 0 0 0 21.623208691380405,43.79665497544089 L 20.968309714404388,44.552371410326195 A 46.28669836640453 46.28669836640453 0 0 1 7.275464296324875,23.923160729153288 Z M 77.09167629251102,47.995261423970824 L 76.53405917828013,47.16516314429739 A 45.28669836640453 45.28669836640453 0 0 0 92.29765864388587,28.77049501413499 L 89.58055368804173,27.498747924919844 L 95.71791934469523,22.64254129870118 L 95.92046525167805,30.466157799755184 L 93.20336029583392,29.194410710540037 A 46.28669836640453 46.28669836640453 0 0 1 77.09167629251102,47.995261423970824"/><text text-anchor="middle" pointer-events="none" font-size="8px" fill="#000000" x="48.47790456733845" y="58.273540939586574" transform="rotate(180 48.47790456733845 55.273540939586574)" font-family="sans-serif">CONNECTION</text></g><g class="relationship" transform="translate(159.51032575307588 60.49991752604878) rotate(188.35559030243485)"><path class="outline" fill="#A5ABB6" stroke="none" d="M 8.542651785911206,23.500491494108545 L 9.47546419928147,23.14012917440469 A 44.81711041112023 44.81711041112023 0 0 0 21.747651715013447,40.699223293994635 L 21.088667475819424,41.45138004128462 A 45.81711041112023 45.81711041112023 0 0 1 8.542651785911206,23.500491494108545 Z M 77.1374281367932,44.81398949502608 L 76.57309732713225,43.98844074584926 A 44.81711041112023 44.81711041112023 0 0 0 90.85659553368009,28.022537961933374 L 88.20748401922823,26.61462880861468 L 94.58323547716569,22.07592928709881 L 94.3887442196159,29.8997501663583 L 91.73963270516404,28.491841013039604 A 45.81711041112023 45.81711041112023 0 0 1 77.1374281367932,44.81398949502608"/><text text-anchor="middle" pointer-events="none" font-size="8px" fill="#000000" x="48.567529842127264" y="55.225505754699995" transform="rotate(180 48.567529842127264 52.225505754699995)" font-family="sans-serif">CONNECTION</text></g><g class="relationship" transform="translate(159.51032575307588 60.49991752604878) rotate(188.35559030243485)"><path class="outline" fill="#A5ABB6" stroke="none" d="M 9.785459231586863,23.010753738783777 L 10.697696118997978,22.60109063177208 A 44.48814289711185 44.48814289711185 0 0 0 21.853527071436048,37.740500479406464 L 21.192049829763306,38.490465717766895 A 45.48814289711185 45.48814289711185 0 0 1 9.785459231586863,23.010753738783777 Z M 77.18883578971456,41.76547053423523 L 76.61929364054058,40.94350840596271 A 44.48814289711185 44.48814289711185 0 0 0 89.46390405402282,27.20777842536514 L 86.88911802484415,25.668143110121186 L 93.48551746112182,21.456550243155576 L 92.8969520929277,29.26062551235708 L 90.32216606374904,27.720990197113125 A 45.48814289711185 45.48814289711185 0 0 1 77.18883578971456,41.76547053423523"/><text text-anchor="middle" pointer-events="none" font-size="8px" fill="#000000" x="48.654751751410494" y="52.28733710861689" transform="rotate(180 48.654751751410494 49.28733710861689)" font-family="sans-serif">CONNECTION</text></g><g class="relationship" transform="translate(159.51032575307588 60.49991752604878) rotate(188.35559030243485)"><path class="outline" fill="#A5ABB6" stroke="none" d="M 11.000339760453674,22.45534513550353 L 11.889397670901271,21.99755038687643 A 44.30760132534781 44.30760132534781 0 0 0 21.939039193509544,34.912982413061336 L 21.27679657484031,35.66227188584079 A 45.30760132534781 45.30760132534781 0 0 1 11.000339760453674,22.45534513550353 Z M 77.24712592770675,38.842739889588 L 76.67402772683113,38.0232531891754 A 44.30760132534781 44.30760132534781 0 0 0 88.12207113582758,26.329409455754487 L 85.6276470023827,24.66272164980889 L 92.4267467052748,20.78686777870736 L 91.44796998042077,28.55165986368195 L 88.95354584697589,26.884972057736356 A 45.30760132534781 45.30760132534781 0 0 1 77.24712592770675,38.842739889588"/><text text-anchor="middle" pointer-events="none" font-size="8px" fill="#000000" x="48.73936679482428" y="49.449197635905186" transform="rotate(180 48.73936679482428 46.449197635905186)" font-family="sans-serif">CONNECTION</text></g><g class="relationship" transform="translate(159.51032575307588 60.49991752604878) rotate(188.35559030243485)"><path class="outline" fill="#A5ABB6" stroke="none" d="M 12.183826200797007,21.83585077593205 L 13.047167834220282,21.331230895231705 A 44.28635410102442 44.28635410102442 0 0 0 22.00246000359499,32.21030669062132 L 21.341331723498257,32.960579572482544 A 45.28635410102442 45.28635410102442 0 0 1 12.183826200797007,21.83585077593205 Z M 77.31353497904055,36.039938950518646 L 76.7387014696172,35.22166855728422 A 44.28635410102442 44.28635410102442 0 0 0 86.83337783514249,25.390643327126323 L 84.42505427128245,23.601795202841735 L 91.40874405244986,20.069363032166997 L 90.04447592028922,27.775774159505772 L 87.63615235642918,25.986926035221185 A 45.28635410102442 45.28635410102442 0 0 1 77.31353497904055,36.039938950518646"/><text text-anchor="middle" pointer-events="none" font-size="8px" fill="#000000" x="48.82118139811876" y="46.70218529273063" transform="rotate(180 48.82118139811876 43.70218529273063)" font-family="sans-serif">CONNECTION</text></g><g class="relationship" transform="translate(159.51032575307588 60.49991752604878) rotate(464.47574622692355)"><path class="outline" fill="#A5ABB6" stroke="none" d="M 24.365313462086043,-5.619741977554534 L 24.57052880428168,-4.6410251322271785 A 130.15253069158192 130.15253069158192 0 0 1 25.557352167966965,-4.843956162711308 L 25.35971887860151,-5.824232186561019 A 131.15253069158192 131.15253069158192 0 0 0 24.365313462086043,-5.619741977554534 Z M 73.9280637422586,-6.440761675551883 L 73.75537749140969,-5.455784793199925 A 130.15253069158192 130.15253069158192 0 0 1 74.74703408189016,-5.277968706174258 L 74.20611776556319,-2.3271366982938937 L 81.72246148633218,-4.507635969391393 L 75.4682558369928,-9.212411383348078 L 74.92733952066583,-6.261579375467713 A 131.15253069158192 131.15253069158192 0 0 0 73.9280637422586,-6.440761675551883"/><text text-anchor="middle" pointer-events="none" font-size="8px" fill="#000000" x="49.621447459463255" y="-4.900556226335354" transform="rotate(180 49.621447459463255 -7.900556226335354)" font-family="sans-serif">CONNEC…</text></g><g class="relationship" transform="translate(159.51032575307588 60.49991752604878) rotate(188.35559030243485)"><path class="outline" fill="#A5ABB6" stroke="none" d="M 13.332540977116146,21.154038647348617 L 14.167702425648983,20.604033779293314 A 44.43897495713003 44.43897495713003 0 0 0 22.042186474618312,29.627133610623552 L 21.384222723749872,30.380183212272165 A 45.43897495713003 45.43897495713003 0 0 1 13.332540977116146,21.154038647348617 Z M 77.38925872599569,33.35218171579231 L 76.81468947947401,32.53372574205181 A 44.43897495713003 44.43897495713003 0 0 0 85.59990967597871,24.394700265832302 L 83.28312658724239,22.4887841817023 L 90.43317772040477,19.306525739469244 L 88.6889537942938,26.93592171133897 L 86.37217070555748,25.03000562720897 A 45.43897495713003 45.43897495713003 0 0 1 77.38925872599569,33.35218171579231"/><text text-anchor="middle" pointer-events="none" font-size="8px" fill="#000000" x="48.900011928511894" y="44.038213920721766" transform="rotate(180 48.900011928511894 41.038213920721766)" font-family="sans-serif">CONNECTION</text></g><g class="relationship" transform="translate(159.51032575307588 60.49991752604878) rotate(188.35559030243485)"><path class="outline" fill="#A5ABB6" stroke="none" d="M 14.44320574945421,20.411854586953456 L 15.247803529220876,19.818034401379958 A 44.78463463246079 44.78463463246079 0 0 0 22.05681132980573,27.159035815403293 L 21.404252477150226,27.916773859730576 A 45.78463463246079 45.78463463246079 0 0 1 14.44320574945421,20.411854586953456 Z M 77.47538967380837,30.77542950542807 L 76.90327702593157,29.955254452077007 A 44.78463463246079 44.78463463246079 0 0 0 84.42356720206718,23.344798744953913 L 82.2034656191092,21.32708990536692 L 89.50157142492982,18.500846524649802 L 87.38370264601114,26.03507719773657 L 85.16360106305316,24.017368358149575 A 45.78463463246079 45.78463463246079 0 0 1 77.47538967380837,30.77542950542807"/><text text-anchor="middle" pointer-events="none" font-size="8px" fill="#000000" x="48.97568468101443" y="41.44991084237471" transform="rotate(180 48.97568468101443 38.44991084237471)" font-family="sans-serif">CONNECTION</text></g><g class="relationship" transform="translate(159.51032575307588 60.49991752604878) rotate(188.35559030243485)"><path class="outline" fill="#A5ABB6" stroke="none" d="M 15.51265076951778,19.61141672860427 L 16.28438862290498,18.975475940755814 A 45.34834250471359 45.34834250471359 0 0 0 22.04520727346733,24.802390444647877 L 21.400504242796384,25.566823569416613 A 46.34834250471359 46.34834250471359 0 0 1 15.51265076951778,19.61141672860427 Z M 77.57284197071769,28.306368262573763 L 77.00558498961026,27.482827421215624 A 45.34834250471359 45.34834250471359 0 0 0 83.30607658866758,22.244147265819382 L 81.18749934652172,20.120087363400984 L 88.61531256800149,17.65481035121545 L 86.13084624486206,25.07622713571058 L 84.0122690027162,22.952167233292183 A 46.34834250471359 46.34834250471359 0 0 1 77.57284197071769,28.306368262573763"/><text text-anchor="middle" pointer-events="none" font-size="8px" fill="#000000" x="49.04803584049969" y="38.93052863839381" transform="rotate(180 49.04803584049969 35.93052863839381)" font-family="sans-serif">CONNECTION</text></g><g class="relationship" transform="translate(159.51032575307588 60.49991752604878) rotate(188.35559030243485)"><path class="outline" fill="#A5ABB6" stroke="none" d="M 16.537823926884638,18.755009457831846 L 17.274499375876804,18.07876299177662 A 46.16269185135415 46.16269185135415 0 0 0 22.006624132601388,22.554267517604323 L 21.372458406654882,23.327464667130073 A 47.16269185135415 47.16269185135415 0 0 1 16.537823926884638,18.755009457831846 Z M 77.68226465009394,25.942282975956843 L 77.12248227780817,25.113643310192458 A 46.16269185135415 46.16269185135415 0 0 0 82.24900018307044,21.095937541854664 L 80.23649325470757,18.871119377758678 L 87.77566038735489,16.770891069690624 L 84.93234275422094,24.062361760649313 L 82.91983582585807,21.837543596553328 A 47.16269185135415 47.16269185135415 0 0 1 77.68226465009394,25.942282975956843"/><text text-anchor="middle" pointer-events="none" font-size="8px" fill="#000000" x="49.11691142394913" y="36.473868781448346" transform="rotate(180 49.11691142394913 33.473868781448346)" font-family="sans-serif">CONNECTION</text></g><g class="relationship" transform="translate(159.51032575307588 60.49991752604878) rotate(188.35559030243485)"><path class="outline" fill="#A5ABB6" stroke="none" d="M 17.515799459482416,17.845076892386746 L 18.21531009135755,17.130454701369946 A 47.270348046268396 47.270348046268396 0 0 0 21.94079683201519,20.412308121880606 L 21.32009854010868,21.196357629516662 A 48.270348046268396 48.270348046268396 0 0 1 17.515799459482416,17.845076892386746 Z M 77.80394534768729,23.680923867202942 L 77.25448744446057,22.845402465572988 A 47.270348046268396 47.270348046268396 0 0 0 81.2537468590273,19.90333899522898 L 79.35156121989068,17.58349206185979 L 86.98375397674485,15.851546992805087 L 83.78999437787611,22.996468239721235 L 81.8878087387395,20.676621306352043 A 48.270348046268396 48.270348046268396 0 0 1 77.80394534768729,23.680923867202942"/><text text-anchor="middle" pointer-events="none" font-size="8px" fill="#000000" x="49.182167206957175" y="34.074215218082166" transform="rotate(180 49.182167206957175 31.074215218082166)" font-family="sans-serif">CONNECTION</text></g><g class="relationship" transform="translate(159.51032575307588 60.49991752604878) rotate(188.35559030243485)"><path class="outline" fill="#A5ABB6" stroke="none" d="M 18.4437863034792,16.884215906923036 L 19.104135770926362,16.133257465434927 A 48.72766154507227 48.72766154507227 0 0 0 21.848060182195642,18.374586046240992 L 21.244022146987668,19.171541535601648 A 49.72766154507227 49.72766154507227 0 0 1 18.4437863034792,16.884215906923036 Z M 77.93770844344266,21.52035929905321 L 77.40166298115761,20.67617018376943 A 48.72766154507227 48.72766154507227 0 0 0 80.32158208581701,18.669494474008967 L 78.53367599452254,16.26047147521628 L 86.2406200982157,14.899217427453973 L 82.70545687420964,21.881525139065882 L 80.91755078291517,19.472502140273196 A 49.72766154507227 49.72766154507227 0 0 1 77.93770844344266,21.52035929905321"/><text text-anchor="middle" pointer-events="none" font-size="8px" fill="#000000" x="49.24366863823114" y="31.726276324478526" transform="rotate(180 49.24366863823114 28.726276324478526)" font-family="sans-serif">CONNECTION</text></g><g class="relationship" transform="translate(159.51032575307588 60.49991752604878) rotate(188.35559030243485)"><path class="outline" fill="#A5ABB6" stroke="none" d="M 19.319136058756136,15.875168721726025 L 19.93843977729076,15.090017205005088 A 50.610032536268825 50.610032536268825 0 0 0 21.729464052153343,16.43944699779383 L 21.14554905370261,17.251261800925853 A 51.610032536268825 51.610032536268825 0 0 1 19.319136058756136,15.875168721726025 Z M 78.0828137420499,19.458811079698933 L 77.56350787644992,18.604222630237167 A 50.610032536268825 50.610032536268825 0 0 0 79.45363762691726,17.39751709647544 L 77.78367921593019,14.905281372156093 L 85.54718071882691,13.91632009155885 L 81.68024884156668,20.720498062234565 L 80.01029043057962,18.22826233791522 A 51.610032536268825 51.610032536268825 0 0 1 78.0828137420499,19.458811079698933"/><text text-anchor="middle" pointer-events="none" font-size="8px" fill="#000000" x="49.30129074548271" y="29.425133930385975" transform="rotate(180 49.30129074548271 26.425133930385975)" font-family="sans-serif">CONNECTION</text></g><g class="relationship" transform="translate(159.51032575307588 60.49991752604878) rotate(188.35559030243485)"><path class="outline" fill="#A5ABB6" stroke="none" d="M 20.13935054722922,14.820815076635226 L 20.71584107364628,14.003711244217717 A 53.0200907870626 53.0200907870626 0 0 0 21.586879758193753,14.605320780247162 L 21.026817696376007,15.433771434729643 A 54.0200907870626 54.0200907870626 0 0 1 20.13935054722922,14.820815076635226 Z M 78.23786419313667,17.494469201751713 L 77.73885645956523,16.62787167011671 A 53.0200907870626 53.0200907870626 0 0 0 78.65092079620733,16.090488129574794 L 77.10229087492141,13.521101944724808 L 84.90426021440494,12.90524934404931 L 80.71576069125521,19.51633637604144 L 79.16713076996929,16.946950191191455 A 54.0200907870626 54.0200907870626 0 0 1 78.23786419313667,17.494469201751713"/><text text-anchor="middle" pointer-events="none" font-size="8px" fill="#000000" x="49.35491803577771" y="27.16619832251765" transform="rotate(180 49.35491803577771 24.16619832251765)" font-family="sans-serif">CONNECTION</text></g><g class="relationship" transform="translate(159.51032575307588 60.49991752604878) rotate(464.47574622692355)"><path class="outline" fill="#A5ABB6" stroke="none" d="M 23.36248952867312,-8.913141030110477 L 23.700190098026855,-7.971887437576477 A 81.66890237269962 81.66890237269962 0 0 1 25.81594857921111,-8.698424028283839 L 25.50415454734858,-9.64857374369447 A 82.66890237269962 82.66890237269962 0 0 0 23.36248952867312,-8.913141030110477 Z M 73.74511640611033,-10.65863117075142 L 73.47336619734322,-9.696263349159778 A 81.66890237269962 81.66890237269962 0 0 1 75.61768119660265,-9.058923132092875 L 74.72366197159506,-6.195231524164948 L 82.44863148593573,-7.450160208396511 L 76.80970682994608,-12.877178609330114 L 75.9156876049385,-10.013487001402186 A 82.66890237269962 82.66890237269962 0 0 0 73.74511640611033,-10.65863117075142"/><text text-anchor="middle" pointer-events="none" font-size="8px" fill="#000000" x="49.5597695897987" y="-10.251636978367856" transform="rotate(180 49.5597695897987 -13.251636978367856)" font-family="sans-serif">CONNEC…</text></g><g class="relationship" transform="translate(159.51032575307588 60.49991752604878) rotate(188.35559030243485)"><path class="outline" fill="#A5ABB6" stroke="none" d="M 20.90208894244944,13.724164012497553 L 21.434121018964774,12.87743981326927 A 56.10056502361113 56.10056502361113 0 0 0 23.119618576897224,13.89569129233837 L 22.617630717534123,14.760565959010975 A 57.10056502361113 57.10056502361113 0 0 1 20.90208894244944,13.724164012497553 Z M 76.60858951647259,16.551988732561284 L 76.16503579009807,15.655740947727594 A 56.10056502361113 56.10056502361113 0 0 0 77.91432321128036,14.751455809888885 L 76.49011819242301,12.111069462351555 L 84.31259219201036,11.868375157144614 L 79.8132632364235,18.271970939938658 L 78.38905821756615,15.631584592401328 A 57.10056502361113 57.10056502361113 0 0 1 76.60858951647259,16.551988732561284"/><text text-anchor="middle" pointer-events="none" font-size="8px" fill="#000000" x="49.404444393096924" y="24.945168314753275" transform="rotate(180 49.404444393096924 21.945168314753275)" font-family="sans-serif">CONNECTI…</text></g><g class="relationship" transform="translate(159.51032575307588 60.49991752604878) rotate(188.35559030243485)"><path class="outline" fill="#A5ABB6" stroke="none" d="M 21.605174450133955,12.588345283605745 L 22.091229699818204,11.714417200606702 A 60.055295033444395 60.055295033444395 0 0 0 25.92770656846079,13.671455534880941 L 25.505533726922334,14.577970891544766 A 61.055295033444395 61.055295033444395 0 0 1 21.605174450133955,12.588345283605745 Z M 73.66342095701658,16.035294879769275 L 73.29683522808683,15.104910602524086 A 60.055295033444395 60.055295033444395 0 0 0 77.24462899378568,13.383435017754538 L 75.94766386237637,10.678276714085708 L 83.7728258909145,10.808042761744279 L 78.97391583566477,16.990312755979645 L 77.67695070425546,14.285154452310815 A 61.055295033444395 61.055295033444395 0 0 1 73.66342095701658,16.035294879769275"/><text text-anchor="middle" pointer-events="none" font-size="8px" fill="#000000" x="49.44977297556212" y="22.757995615745124" transform="rotate(180 49.44977297556212 19.757995615745124)" font-family="sans-serif">CHEAPEST</text></g><g class="relationship" transform="translate(159.51032575307588 60.49991752604878) rotate(188.35559030243485)"><path class="outline" fill="#A5ABB6" stroke="none" d="M 22.24660052056263,11.416600425630325 L 22.68529178066735,10.517962579605726 A 65.18509015809128 65.18509015809128 0 0 0 25.82647849871409,11.949688437209225 L 25.43597596873812,12.870290291477602 A 66.18509015809128 66.18509015809128 0 0 1 22.24660052056263,11.416600425630325 Z M 73.76772307724627,14.188325215235807 L 73.4279743226344,13.247808982659421 A 65.18509015809128 65.18509015809128 0 0 0 76.64252237579925,11.98940771801539 L 75.4753336279369,9.225774162917405 L 83.28553212900493,9.726572898852904 L 78.19877403961571,15.674252458146034 L 77.03158529175337,12.91061890304805 A 66.18509015809128 66.18509015809128 0 0 1 73.76772307724627,14.188325215235807"/><text text-anchor="middle" pointer-events="none" font-size="8px" fill="#000000" x="49.49081611450088" y="20.60085284147638" transform="rotate(180 49.49081611450088 17.60085284147638)" font-family="sans-serif">CHEAPEST</text></g><g class="relationship" transform="translate(159.51032575307588 60.49991752604878) rotate(188.35559030243485)"><path class="outline" fill="#A5ABB6" stroke="none" d="M 22.824536575110184,10.212273504536466 L 23.214611855919234,9.291490535915877 A 71.95228881981001 71.95228881981001 0 0 0 25.71915136894498,10.29752174350871 L 25.36388442507846,11.232286632984 A 72.95228881981001 72.95228881981001 0 0 1 22.824536575110184,10.212273504536466 Z M 73.86790308253582,12.40681672136445 L 73.5582968683132,11.455951856036705 A 71.95228881981001 71.95228881981001 0 0 0 76.108594679097,10.572324084138806 L 75.07344316560818,7.756571725687903 L 82.85120876773057,8.626262612406737 L 77.48879669708208,14.326660562073346 L 76.45364518359327,11.510908203622442 A 72.95228881981001 72.95228881981001 0 0 1 73.86790308253582,12.40681672136445"/><text text-anchor="middle" pointer-events="none" font-size="8px" fill="#000000" x="49.52749521726256" y="18.470104615977576" transform="rotate(180 49.52749521726256 15.470104615977576)" font-family="sans-serif">CHEAPEST</text></g><g class="relationship" transform="translate(159.51032575307588 60.49991752604878) rotate(188.35559030243485)"><path class="outline" fill="#A5ABB6" stroke="none" d="M 23.337333230570962,8.978801572887575 L 23.677679288478842,8.038501322506578 A 81.10492597846559 81.10492597846559 0 0 0 25.609349037918143,8.710255959342746 L 25.292819902671063,9.658838747790725 A 82.10492597846559 82.10492597846559 0 0 1 23.337333230570962,8.978801572887575 Z M 73.96129213935099,10.685862676655276 L 73.68506180667717,9.72477121206363 A 81.10492597846559 81.10492597846559 0 0 0 75.6433506409504,9.135104225900717 L 74.74222425837068,6.273641096203115 L 82.47028567400808,7.509386521497644 L 76.84485248439002,12.950388398830853 L 75.9437261018103,10.08892526913325 A 82.10492597846559 82.10492597846559 0 0 1 73.96129213935099,10.685862676655276"/><text text-anchor="middle" pointer-events="none" font-size="8px" fill="#000000" x="49.55974067545486" y="16.362281281732407" transform="rotate(180 49.55974067545486 13.362281281732407)" font-family="sans-serif">CHEAPEST</text></g><g class="relationship" transform="translate(159.51032575307588 60.49991752604878) rotate(464.47574622692355)"><path class="outline" fill="#A5ABB6" stroke="none" d="M 21.916810198440235,-12.037584090071652 L 22.380594600123676,-11.151635994100372 A 62.31177724554901 62.31177724554901 0 0 1 25.879273762391012,-12.846280436267257 L 25.471637320482177,-13.759424746454812 A 63.31177724554901 63.31177724554901 0 0 0 21.916810198440235,-12.037584090071652 Z M 73.71158837027504,-15.15134086309046 L 73.35728204026171,-14.216211447173883 A 62.31177724554901 62.31177724554901 0 0 1 76.9478535999557,-12.72612032896423 L 75.71206657187795,-9.992472505773621 L 83.5323296920801,-10.298225233981249 L 78.59556963739271,-16.37098409321838 L 77.35978260931496,-13.637336270027768 A 63.31177724554901 63.31177724554901 0 0 0 73.71158837027504,-15.15134086309046"/><text text-anchor="middle" pointer-events="none" font-size="8px" fill="#000000" x="49.468207144117216" y="-15.73228204960919" transform="rotate(180 49.468207144117216 -18.73228204960919)" font-family="sans-serif">CHEAPEST</text></g><g class="relationship" transform="translate(159.51032575307588 60.49991752604878) rotate(188.35559030243485)"><path class="outline" fill="#A5ABB6" stroke="none" d="M 23.783527006366484,7.719704860772599 L 24.073172520986446,6.762570870225541 A 93.93637128085042 93.93637128085042 0 0 0 25.500980996541323,7.182333716422406 L 25.226535222512638,8.143936293955235 A 94.93637128085042 94.93637128085042 0 0 1 23.783527006366484,7.719704860772599 Z M 74.04504570501855,9.019747306265302 L 73.8052680068009,8.048919486599303 A 93.93637128085042 93.93637128085042 0 0 0 75.24721406576867,7.680640444375983 L 74.48183024424691,4.779918533238561 L 82.14312916200961,6.37819851268142 L 76.2677258277977,11.548269659225877 L 75.50234200627594,8.647547748088456 A 94.93637128085042 94.93637128085042 0 0 1 74.04504570501855,9.019747306265302"/><text text-anchor="middle" pointer-events="none" font-size="8px" fill="#000000" x="49.58749178004436" y="14.27405480542177" transform="rotate(180 49.58749178004436 11.27405480542177)" font-family="sans-serif">CHEAPEST</text></g><g class="relationship" transform="translate(159.51032575307588 60.49991752604878) rotate(464.47574622692355)"><path class="outline" fill="#A5ABB6" stroke="none" d="M 20.055679524053907,-14.933844743683553 L 20.636756339455843,-14.119996026413359 A 52.7349702760562 52.7349702760562 0 0 1 26.105725649895533,-17.540048776726117 L 25.628355526311392,-18.418751095551592 A 53.7349702760562 53.7349702760562 0 0 0 20.055679524053907,-14.933844743683553 Z M 73.43895054468005,-20.154952973393904 L 73.02657243219468,-19.243940189541227 A 52.7349702760562 52.7349702760562 0 0 1 78.72920227228255,-16.229574743814293 L 77.16765532151297,-13.668018357446385 L 84.96642499893593,-13.01289125641324 L 80.81126487330866,-19.6449832589715 L 79.24971792253908,-17.083426872603592 A 53.7349702760562 53.7349702760562 0 0 0 73.43895054468005,-20.154952973393904"/><text text-anchor="middle" pointer-events="none" font-size="8px" fill="#000000" x="49.34791479037153" y="-21.401612092267072" transform="rotate(180 49.34791479037153 -24.401612092267072)" font-family="sans-serif">CHEAPEST</text></g><g class="relationship" transform="translate(159.51032575307588 60.49991752604878) rotate(188.35559030243485)"><path class="outline" fill="#A5ABB6" stroke="none" d="M 24.161844501201795,6.438576729351336 L 24.399962847436395,5.467340582378572 A 112.89116819348226 112.89116819348226 0 0 0 25.39806781537839,5.707240971022443 L 25.168790771647025,6.680602176956711 A 113.89116819348226 113.89116819348226 0 0 1 24.161844501201795,6.438576729351336 Z M 74.11628976265567,7.401881128684678 L 73.91579248966518,6.422186868456848 A 112.89116819348226 112.89116819348226 0 0 0 74.92053278667828,6.211799941439409 L 74.29234073119339,3.2783080390429378 L 81.87004590151753,5.234933795707412 L 75.75812219399147,10.123122477968039 L 75.12993013850658,7.189630575571567 A 113.89116819348226 113.89116819348226 0 0 1 74.11628976265567,7.401881128684678"/><text text-anchor="middle" pointer-events="none" font-size="8px" fill="#000000" x="49.610696644557784" y="12.202216517031829" transform="rotate(180 49.610696644557784 9.202216517031829)" font-family="sans-serif">CHEAPEST</text></g><g class="relationship" transform="translate(159.51032575307588 60.49991752604878) rotate(188.35559030243485)"><path class="outline" fill="#A5ABB6" stroke="none" d="M 24.471206027250748,5.139073415689509 L 24.657117634413662,4.15650694245622 A 143.20947408310917 143.20947408310917 0 0 0 25.304531964216846,4.277462991843123 L 25.123141107751106,5.260874074346589 A 144.20947408310917 144.20947408310917 0 0 1 24.471206027250748,5.139073415689509 Z M 74.17229231953786,5.824788870513174 L 74.01355884281645,4.837467401401966 A 143.20947408310917 143.20947408310917 0 0 0 74.66358292505251,4.731427914271245 L 74.17376557282923,1.7716848576088977 L 81.6512862826352,4.0818112685273205 L 75.31667272801688,8.677751989821042 L 74.8268553757936,5.7180089331586945 A 144.20947408310917 144.20947408310917 0 0 1 74.17229231953786,5.824788870513174"/><text text-anchor="middle" pointer-events="none" font-size="8px" fill="#000000" x="49.62931213742802" y="10.143656362939112" transform="rotate(180 49.62931213742802 7.143656362939112)" font-family="sans-serif">CHEAPEST</text></g><g class="relationship" transform="translate(159.51032575307588 60.49991752604878) rotate(188.35559030243485)"><path class="outline" fill="#A5ABB6" stroke="none" d="M 24.71072869149858,3.824903598151064 L 24.84390298275492,2.8338109646659944 A 198.51818162498776 198.51818162498776 0 0 0 25.223968950853045,2.8845072568748265 L 25.092709174252175,3.875855263906999 A 199.51818162498776 199.51818162498776 0 0 1 24.71072869149858,3.824903598151064 Z M 74.21064642259718,4.280158366793671 L 74.09572343606187,3.286783962469798 A 198.51818162498776 198.51818162498776 0 0 0 74.47657243919312,3.2423509683784384 L 74.12604810242205,0.2628992253003264 L 81.48704722917056,2.9210361397589497 L 74.94393822155455,7.214953292482587 L 74.59341388478347,4.235501549404476 A 199.51818162498776 199.51818162498776 0 0 1 74.21064642259718,4.280158366793671"/><text text-anchor="middle" pointer-events="none" font-size="8px" fill="#000000" x="49.64330382435299" y="8.095343387925624" transform="rotate(180 49.64330382435299 5.095343387925624)" font-family="sans-serif">CHEAPEST</text></g><g class="relationship" transform="translate(159.51032575307588 60.49991752604878) rotate(464.47574622692355)"><path class="outline" fill="#A5ABB6" stroke="none" d="M 17.814376783534897,-17.547021964260857 L 18.501731218904354,-16.82069980421207 A 47.68732406776366 47.68732406776366 0 0 1 26.238329723151516,-22.767641499511072 L 25.71321124158088,-23.61867062963116 A 48.68732406776366 48.68732406776366 0 0 0 17.814376783534897,-17.547021964260857 Z M 73.17860874249243,-25.668805683977872 L 72.72882465117061,-24.775668364640133 A 47.68732406776366 47.68732406776366 0 0 1 80.94937705007469,-19.517951160370046 L 79.08287147218998,-17.169301137968827 L 86.74064469865833,-15.55421314903926 L 83.43805115392097,-22.649484523571676 L 81.57154557603626,-20.300834501170456 A 48.68732406776366 48.68732406776366 0 0 0 73.17860874249243,-25.668805683977872"/><text text-anchor="middle" pointer-events="none" font-size="8px" fill="#000000" x="49.20044698005023" y="-27.326778116052054" transform="rotate(180 49.20044698005023 -30.326778116052054)" font-family="sans-serif">CHEAPEST</text></g><g class="relationship" transform="translate(159.51032575307588 60.49991752604878) rotate(188.35559030243485)"><path class="outline" fill="#A5ABB6" stroke="none" d="M 24.879728915447846,2.499817812127192 L 24.95978582203794,1.5030275173774759 A 328.78656472319267 328.78656472319267 0 0 0 25.15941900742361,1.5189998042137631 L 25.07996928253376,2.51583867846324 A 329.78656472319267 329.78656472319267 0 0 1 24.879728915447846,2.499817812127192 Z M 74.22944700908828,2.758953455580013 L 74.1598625313028,1.7613773930908678 A 328.78656472319267 328.78656472319267 0 0 0 74.35964395592669,1.7473807853132826 L 74.14906762486648,-1.245219690660285 L 81.3774744550417,1.7548027588350603 L 74.64041239734028,5.737514753278039 L 74.42983606628007,2.7449142773044715 A 329.78656472319267 329.78656472319267 0 0 1 74.22944700908828,2.758953455580013"/><text text-anchor="middle" pointer-events="none" font-size="8px" fill="#000000" x="49.652645921367686" y="6.054307188372547" transform="rotate(180 49.652645921367686 3.0543071883725474)" font-family="sans-serif">CHEAPEST</text></g><g class="relationship" transform="translate(159.51032575307588 60.49991752604878) rotate(188.35559030243485)"><path class="outline" fill="#A5ABB6" stroke="none" d="M 24.97772438599671,1.1675977463087426 L 25.00443543192189,0.1679545499503704 A 983.7497851578074 983.7497851578074 0 0 0 25.113162517466975,0.17085378588353706 L 25.086561994651618,1.1704999293693845 A 984.7497851578074 984.7497851578074 0 0 1 24.97772438599671,1.1675977463087426 Z M 74.22744219147533,1.2515868715771603 L 74.20414081947692,0.2518583854055123 A 983.7497851578074 983.7497851578074 0 0 0 74.31287688092141,0.2493179835340088 L 74.2426411682242,-2.7498597278832246 L 81.32266415967783,0.5852976058100634 L 74.40652449785102,4.248221598756987 L 74.33628878515381,1.2490438873397536 A 984.7497851578074 984.7497851578074 0 0 1 74.22744219147533,1.2515868715771603"/><text text-anchor="middle" pointer-events="none" font-size="8px" fill="#000000" x="49.65732125918175" y="4.017620100075419" transform="rotate(180 49.65732125918175 1.017620100075419)" font-family="sans-serif">CHEAPEST</text></g><g class="relationship" transform="translate(159.51032575307588 60.49991752604878) rotate(188.35559030243485)"><path class="outline" fill="#A5ABB6" stroke="none" d="M 24.97772438599671,-1.1675977463087426 L 25.00443543192189,-0.1679545499503704 A 983.7497851578074 983.7497851578074 0 0 1 25.11316251746704,-0.17085378588353706 L 25.08656199465168,-1.1704999293693845 A 984.7497851578074 984.7497851578074 0 0 0 24.97772438599671,-1.1675977463087426 Z M 74.22744219147529,-1.2515868715771603 L 74.20414081947688,-0.2518583854055123 A 983.7497851578074 983.7497851578074 0 0 1 74.31287688092141,-0.2493179835340088 L 74.2426411682242,2.7498597278832246 L 81.32266415967783,-0.5852976058100634 L 74.40652449785102,-4.248221598756987 L 74.33628878515381,-1.2490438873397536 A 984.7497851578074 984.7497851578074 0 0 0 74.22744219147529,-1.2515868715771603"/><text text-anchor="middle" pointer-events="none" font-size="8px" fill="#000000" x="49.65732125918176" y="1.982379899924581" transform="rotate(180 49.65732125918176 -1.017620100075419)" font-family="sans-serif">CHEAPEST</text></g><g class="relationship" transform="translate(159.51032575307588 60.49991752604878) rotate(188.35559030243485)"><path class="outline" fill="#A5ABB6" stroke="none" d="M 24.879728915447846,-2.499817812127192 L 24.95978582203794,-1.5030275173774759 A 328.78656472319267 328.78656472319267 0 0 1 25.159419007423573,-1.5189998042137631 L 25.079969282533725,-2.51583867846324 A 329.78656472319267 329.78656472319267 0 0 0 24.879728915447846,-2.499817812127192 Z M 74.22944700908835,-2.758953455580013 L 74.15986253130288,-1.7613773930908678 A 328.78656472319267 328.78656472319267 0 0 1 74.35964395592669,-1.7473807853132826 L 74.14906762486648,1.245219690660285 L 81.3774744550417,-1.7548027588350603 L 74.64041239734028,-5.737514753278039 L 74.42983606628007,-2.7449142773044715 A 329.78656472319267 329.78656472319267 0 0 0 74.22944700908835,-2.758953455580013"/><text text-anchor="middle" pointer-events="none" font-size="8px" fill="#000000" x="49.65264592136771" y="-0.054307188372547444" transform="rotate(180 49.65264592136771 -3.0543071883725474)" font-family="sans-serif">CHEAPEST</text></g><g class="relationship" transform="translate(159.51032575307588 60.49991752604878) rotate(188.35559030243485)"><path class="outline" fill="#A5ABB6" stroke="none" d="M 24.71072869149858,-3.824903598151064 L 24.84390298275492,-2.8338109646659944 A 198.51818162498776 198.51818162498776 0 0 1 25.223968950852985,-2.884507256874798 L 25.092709174252114,-3.875855263906999 A 199.51818162498776 199.51818162498776 0 0 0 24.71072869149858,-3.824903598151064 Z M 74.21064642259711,-4.280158366793671 L 74.0957234360618,-3.286783962469798 A 198.51818162498776 198.51818162498776 0 0 1 74.47657243919312,-3.2423509683784384 L 74.12604810242205,-0.2628992253003264 L 81.48704722917056,-2.9210361397589497 L 74.94393822155455,-7.214953292482587 L 74.59341388478347,-4.235501549404476 A 199.51818162498776 199.51818162498776 0 0 0 74.21064642259711,-4.280158366793671"/><text text-anchor="middle" pointer-events="none" font-size="8px" fill="#000000" x="49.64330382435292" y="-2.095343387925624" transform="rotate(180 49.64330382435292 -5.095343387925624)" font-family="sans-serif">CHEAPEST</text></g><g class="relationship" transform="translate(159.51032575307588 60.49991752604878) rotate(188.35559030243485)"><path class="outline" fill="#A5ABB6" stroke="none" d="M 24.471206027250748,-5.139073415689509 L 24.657117634413662,-4.15650694245622 A 143.20947408310917 143.20947408310917 0 0 1 25.30453196421685,-4.277462991843123 L 25.12314110775111,-5.260874074346589 A 144.20947408310917 144.20947408310917 0 0 0 24.471206027250748,-5.139073415689509 Z M 74.17229231953785,-5.824788870513174 L 74.01355884281644,-4.837467401401966 A 143.20947408310917 143.20947408310917 0 0 1 74.66358292505251,-4.731427914271245 L 74.17376557282923,-1.7716848576088977 L 81.6512862826352,-4.0818112685273205 L 75.31667272801688,-8.677751989821042 L 74.8268553757936,-5.7180089331586945 A 144.20947408310917 144.20947408310917 0 0 0 74.17229231953785,-5.824788870513174"/><text text-anchor="middle" pointer-events="none" font-size="8px" fill="#000000" x="49.629312137428016" y="-4.143656362939112" transform="rotate(180 49.629312137428016 -7.143656362939112)" font-family="sans-serif">CHEAPEST</text></g><g class="relationship" transform="translate(159.51032575307588 60.49991752604878) rotate(188.35559030243485)"><path class="outline" fill="#A5ABB6" stroke="none" d="M 24.161844501201795,-6.438576729351336 L 24.399962847436395,-5.467340582378572 A 112.89116819348226 112.89116819348226 0 0 1 25.39806781537835,-5.707240971022429 L 25.168790771646986,-6.680602176956697 A 113.89116819348226 113.89116819348226 0 0 0 24.161844501201795,-6.438576729351336 Z M 74.11628976265564,-7.401881128684693 L 73.91579248966514,-6.422186868456848 A 112.89116819348226 112.89116819348226 0 0 1 74.92053278667828,-6.211799941439409 L 74.29234073119339,-3.2783080390429378 L 81.87004590151753,-5.234933795707412 L 75.75812219399147,-10.123122477968039 L 75.12993013850658,-7.189630575571567 A 113.89116819348226 113.89116819348226 0 0 0 74.11628976265564,-7.401881128684693"/><text text-anchor="middle" pointer-events="none" font-size="8px" fill="#000000" x="49.61069664455775" y="-6.202216517031829" transform="rotate(180 49.61069664455775 -9.202216517031829)" font-family="sans-serif">CHEAPEST</text></g><g class="relationship" transform="translate(159.51032575307588 60.49991752604878) rotate(464.47574622692355)"><path class="outline" fill="#A5ABB6" stroke="none" d="M 15.235387732235946,-19.82758080675589 L 16.015990413247987,-19.20255324384621 A 45.17513886682444 45.17513886682444 0 0 1 26.25704523600057,-28.578728301140053 L 25.70313925320883,-29.4113075239336 A 46.17513886682444 46.17513886682444 0 0 0 15.235387732235946,-19.82758080675589 Z M 72.94568273177786,-31.74348243495656 L 72.47647227923363,-30.86039605683535 A 45.17513886682444 45.17513886682444 0 0 1 83.59121133354269,-22.538470898420368 L 81.44547007742743,-20.441855897566622 L 88.8409365448873,-17.881177134293743 L 86.45219967502969,-25.33395756622536 L 84.30645841891443,-23.237342565371616 A 46.17513886682444 46.17513886682444 0 0 0 72.94568273177786,-31.74348243495656"/><text text-anchor="middle" pointer-events="none" font-size="8px" fill="#000000" x="49.027768957973734" y="-33.5864315003024" transform="rotate(180 49.027768957973734 -36.5864315003024)" font-family="sans-serif">CHEAPEST</text></g><g class="relationship" transform="translate(159.51032575307588 60.49991752604878) rotate(188.35559030243485)"><path class="outline" fill="#A5ABB6" stroke="none" d="M 23.783527006366484,-7.719704860772599 L 24.073172520986446,-6.762570870225541 A 93.93637128085042 93.93637128085042 0 0 1 25.500980996541315,-7.182333716422406 L 25.22653522251263,-8.143936293955235 A 94.93637128085042 94.93637128085042 0 0 0 23.783527006366484,-7.719704860772599 Z M 74.04504570501855,-9.019747306265288 L 73.8052680068009,-8.048919486599289 A 93.93637128085042 93.93637128085042 0 0 1 75.24721406576867,-7.680640444375983 L 74.48183024424691,-4.779918533238561 L 82.14312916200961,-6.37819851268142 L 76.2677258277977,-11.548269659225877 L 75.50234200627594,-8.647547748088456 A 94.93637128085042 94.93637128085042 0 0 0 74.04504570501855,-9.019747306265288"/><text text-anchor="middle" pointer-events="none" font-size="8px" fill="#000000" x="49.58749178004436" y="-8.27405480542177" transform="rotate(180 49.58749178004436 -11.27405480542177)" font-family="sans-serif">CHEAPEST</text></g><g class="relationship" transform="translate(159.51032575307588 60.49991752604878) rotate(188.35559030243485)"><path class="outline" fill="#A5ABB6" stroke="none" d="M 23.337333230570962,-8.978801572887575 L 23.677679288478842,-8.038501322506578 A 81.10492597846559 81.10492597846559 0 0 1 25.60934903791813,-8.710255959342732 L 25.29281990267105,-9.65883874779071 A 82.10492597846559 82.10492597846559 0 0 0 23.337333230570962,-8.978801572887575 Z M 73.96129213935097,-10.685862676655276 L 73.68506180667715,-9.72477121206363 A 81.10492597846559 81.10492597846559 0 0 1 75.6433506409504,-9.135104225900717 L 74.74222425837068,-6.273641096203115 L 82.47028567400808,-7.509386521497644 L 76.84485248439002,-12.950388398830853 L 75.9437261018103,-10.08892526913325 A 82.10492597846559 82.10492597846559 0 0 0 73.96129213935097,-10.685862676655276"/><text text-anchor="middle" pointer-events="none" font-size="8px" fill="#000000" x="49.55974067545485" y="-10.362281281732407" transform="rotate(180 49.55974067545485 -13.362281281732407)" font-family="sans-serif">CHEAPEST</text></g><g class="relationship" transform="translate(159.51032575307588 60.49991752604878) rotate(188.35559030243485)"><path class="outline" fill="#A5ABB6" stroke="none" d="M 22.824536575110184,-10.212273504536466 L 23.214611855919234,-9.291490535915877 A 71.95228881981001 71.95228881981001 0 0 1 25.719151368944964,-10.297521743508696 L 25.36388442507844,-11.232286632983985 A 72.95228881981001 72.95228881981001 0 0 0 22.824536575110184,-10.212273504536466 Z M 73.8679030825358,-12.406816721364464 L 73.5582968683132,-11.45595185603672 A 71.95228881981001 71.95228881981001 0 0 1 76.108594679097,-10.572324084138806 L 75.07344316560818,-7.756571725687903 L 82.85120876773057,-8.626262612406737 L 77.48879669708208,-14.326660562073346 L 76.45364518359327,-11.510908203622442 A 72.95228881981001 72.95228881981001 0 0 0 73.8679030825358,-12.406816721364464"/><text text-anchor="middle" pointer-events="none" font-size="8px" fill="#000000" x="49.52749521726254" y="-12.470104615977576" transform="rotate(180 49.52749521726254 -15.470104615977576)" font-family="sans-serif">CHEAPEST</text></g><g class="relationship" transform="translate(159.51032575307588 60.49991752604878) rotate(188.35559030243485)"><path class="outline" fill="#A5ABB6" stroke="none" d="M 22.24660052056263,-11.416600425630325 L 22.68529178066735,-10.517962579605726 A 65.18509015809128 65.18509015809128 0 0 1 25.826478498714085,-11.949688437209225 L 25.435975968738116,-12.870290291477602 A 66.18509015809128 66.18509015809128 0 0 0 22.24660052056263,-11.416600425630325 Z M 73.76772307724627,-14.188325215235807 L 73.4279743226344,-13.247808982659421 A 65.18509015809128 65.18509015809128 0 0 1 76.64252237579925,-11.98940771801539 L 75.4753336279369,-9.225774162917405 L 83.28553212900493,-9.726572898852904 L 78.19877403961571,-15.674252458146034 L 77.03158529175337,-12.91061890304805 A 66.18509015809128 66.18509015809128 0 0 0 73.76772307724627,-14.188325215235807"/><text text-anchor="middle" pointer-events="none" font-size="8px" fill="#000000" x="49.49081611450087" y="-14.600852841476382" transform="rotate(180 49.49081611450087 -17.60085284147638)" font-family="sans-serif">CHEAPEST</text></g><g class="relationship" transform="translate(159.51032575307588 60.49991752604878) rotate(188.35559030243485)"><path class="outline" fill="#A5ABB6" stroke="none" d="M 21.605174450133955,-12.588345283605745 L 22.091229699818204,-11.714417200606702 A 60.055295033444395 60.055295033444395 0 0 1 25.927706568460795,-13.671455534880941 L 25.50553372692234,-14.577970891544766 A 61.055295033444395 61.055295033444395 0 0 0 21.605174450133955,-12.588345283605745 Z M 73.66342095701657,-16.035294879769282 L 73.29683522808682,-15.104910602524093 A 60.055295033444395 60.055295033444395 0 0 1 77.24462899378568,-13.383435017754538 L 75.94766386237637,-10.678276714085708 L 83.7728258909145,-10.808042761744279 L 78.97391583566477,-16.990312755979645 L 77.67695070425546,-14.285154452310815 A 61.055295033444395 61.055295033444395 0 0 0 73.66342095701657,-16.035294879769282"/><text text-anchor="middle" pointer-events="none" font-size="8px" fill="#000000" x="49.44977297556212" y="-16.757995615745124" transform="rotate(180 49.44977297556212 -19.757995615745124)" font-family="sans-serif">CHEAPEST</text></g><g class="relationship" transform="translate(159.51032575307588 60.49991752604878) rotate(188.35559030243485)"><path class="outline" fill="#A5ABB6" stroke="none" d="M 20.90208894244944,-13.724164012497553 L 21.434121018964774,-12.87743981326927 A 56.10056502361113 56.10056502361113 0 0 1 26.019628631478767,-15.466803242258088 L 25.56933383533813,-16.35968318747394 A 57.10056502361113 57.10056502361113 0 0 0 20.90208894244944,-13.724164012497553 Z M 73.55737751991312,-17.951928930595763 L 73.16725955192905,-17.031164046895263 A 56.10056502361113 56.10056502361113 0 0 1 77.91432321128036,-14.751455809888885 L 76.49011819242301,-12.111069462351555 L 84.31259219201036,-11.868375157144614 L 79.8132632364235,-18.271970939938658 L 78.38905821756615,-15.631584592401328 A 57.10056502361113 57.10056502361113 0 0 0 73.55737751991312,-17.951928930595763"/><text text-anchor="middle" pointer-events="none" font-size="8px" fill="#000000" x="49.40444439309691" y="-18.945168314753275" transform="rotate(180 49.40444439309691 -21.945168314753275)" font-family="sans-serif">CHEAPEST</text></g><g class="relationship" transform="translate(159.51032575307588 60.49991752604878) rotate(188.35559030243485)"><path class="outline" fill="#A5ABB6" stroke="none" d="M 20.13935054722922,-14.820815076635226 L 20.71584107364628,-14.003711244217717 A 53.0200907870626 53.0200907870626 0 0 1 26.099540129873898,-17.339155498371028 L 25.624590339738287,-18.219168394214115 A 54.0200907870626 54.0200907870626 0 0 0 20.13935054722922,-14.820815076635226 Z M 73.45161054305952,-19.94186077219541 L 73.04120417206155,-19.0299580303176 A 53.0200907870626 53.0200907870626 0 0 1 78.65092079620733,-16.090488129574794 L 77.10229087492141,-13.521101944724808 L 84.90426021440494,-12.90524934404931 L 80.71576069125521,-19.51633637604144 L 79.16713076996929,-16.946950191191455 A 54.0200907870626 54.0200907870626 0 0 0 73.45161054305952,-19.94186077219541"/><text text-anchor="middle" pointer-events="none" font-size="8px" fill="#000000" x="49.35491803577771" y="-21.16619832251765" transform="rotate(180 49.35491803577771 -24.16619832251765)" font-family="sans-serif">CHEAPEST</text></g><g class="relationship" transform="translate(159.51032575307588 60.49991752604878) rotate(464.47574622692355)"><path class="outline" fill="#A5ABB6" stroke="none" d="M 12.367599250055083,-21.732291383791928 L 13.226653204424967,-21.22040633470233 A 44.29660271020978 44.29660271020978 0 0 1 26.16098214748852,-35.0317000762428 L 25.593921893576447,-35.855376389143174 A 45.29660271020978 45.29660271020978 0 0 0 12.367599250055083,-21.732291383791928 Z M 72.74146965636992,-38.43523560703839 L 72.26766713157815,-37.55460448818049 A 44.29660271020978 44.29660271020978 0 0 1 86.63173653039497,-25.23704749304301 L 84.23751827619479,-23.429364182489245 L 91.24870063072046,-19.951818785001542 L 89.82402753599523,-27.6472919071147 L 87.42980928179504,-25.839608596560932 A 45.29660271020978 45.29660271020978 0 0 0 72.74146965636992,-38.43523560703839"/><text text-anchor="middle" pointer-events="none" font-size="8px" fill="#000000" x="48.832268140275566" y="-40.275326705487856" transform="rotate(180 48.832268140275566 -43.275326705487856)" font-family="sans-serif">CHEAPEST</text></g><g class="relationship" transform="translate(159.51032575307588 60.49991752604878) rotate(188.35559030243485)"><path class="outline" fill="#A5ABB6" stroke="none" d="M 19.319136058756136,-15.875168721726025 L 19.93843977729076,-15.090017205005088 A 50.610032536268825 50.610032536268825 0 0 1 26.165281080538307,-19.291553723832507 L 25.669013072340075,-20.159723099034693 A 51.610032536268825 51.610032536268825 0 0 0 19.319136058756136,-15.875168721726025 Z M 73.34773607114897,-22.008303833373752 L 72.920177438368,-21.104316214246992 A 50.610032536268825 50.610032536268825 0 0 1 79.45363762691726,-17.39751709647544 L 77.78367921593019,-14.905281372156093 L 85.54718071882691,-13.91632009155885 L 81.68024884156668,-20.720498062234565 L 80.01029043057962,-18.22826233791522 A 51.610032536268825 51.610032536268825 0 0 0 73.34773607114897,-22.008303833373752"/><text text-anchor="middle" pointer-events="none" font-size="8px" fill="#000000" x="49.30129074548271" y="-23.425133930385975" transform="rotate(180 49.30129074548271 -26.425133930385975)" font-family="sans-serif">CHEAPEST</text></g><g class="relationship" transform="translate(159.51032575307588 60.49991752604878) rotate(188.35559030243485)"><path class="outline" fill="#A5ABB6" stroke="none" d="M 18.4437863034792,-16.884215906923036 L 19.104135770926362,-16.133257465434927 A 48.72766154507227 48.72766154507227 0 0 1 26.215240994976067,-21.326830441688806 L 25.70082722398075,-22.184372552730814 A 49.72766154507227 49.72766154507227 0 0 0 18.4437863034792,-16.884215906923036 Z M 73.24696161141334,-24.154207508402763 L 72.80524487254469,-23.25705293832955 A 48.72766154507227 48.72766154507227 0 0 1 80.32158208581701,-18.669494474008967 L 78.53367599452254,-16.26047147521628 L 86.2406200982157,-14.899217427453973 L 82.70545687420964,-21.881525139065882 L 80.91755078291517,-19.472502140273196 A 49.72766154507227 49.72766154507227 0 0 0 73.24696161141334,-24.154207508402763"/><text text-anchor="middle" pointer-events="none" font-size="8px" fill="#000000" x="49.24366863823114" y="-25.726276324478526" transform="rotate(180 49.24366863823114 -28.726276324478526)" font-family="sans-serif">CHEAPEST</text></g><g class="relationship" transform="translate(159.51032575307588 60.49991752604878) rotate(188.35559030243485)"><path class="outline" fill="#A5ABB6" stroke="none" d="M 17.515799459482416,-17.845076892386746 L 18.21531009135755,-17.130454701369946 A 47.270348046268396 47.270348046268396 0 0 1 26.24833446970883,-23.447775260415547 L 25.71876175262308,-24.296039804834578 A 48.270348046268396 48.270348046268396 0 0 0 17.515799459482416,-17.845076892386746 Z M 73.15010491015464,-26.382411758550447 L 72.69705899950505,-25.490924572527177 A 47.270348046268396 47.270348046268396 0 0 1 81.2537468590273,-19.90333899522898 L 79.35156121989068,-17.58349206185979 L 86.98375397674485,-15.851546992805087 L 83.78999437787611,-22.996468239721235 L 81.8878087387395,-20.676621306352043 A 48.270348046268396 48.270348046268396 0 0 0 73.15010491015464,-26.382411758550447"/><text text-anchor="middle" pointer-events="none" font-size="8px" fill="#000000" x="49.18216720695717" y="-28.074215218082166" transform="rotate(180 49.18216720695717 -31.074215218082166)" font-family="sans-serif">CHEAPEST</text></g><g class="relationship" transform="translate(159.51032575307588 60.49991752604878) rotate(464.47574622692355)"><path class="outline" fill="#A5ABB6" stroke="none" d="M 9.265372650015623,-23.225048324090576 L 10.18659379640068,-22.83600899516225 A 44.607346772959865 44.607346772959865 0 0 1 14.529597175378917,-30.76511653042844 L 13.705736748542662,-31.33190925893965 A 45.607346772959865 45.607346772959865 0 0 0 9.265372650015623,-23.225048324090576 Z M 85.54503699896699,-35.58059008696954 L 84.79372795567267,-34.92063954225867 A 44.607346772959865 44.607346772959865 0 0 1 90.04106501908623,-27.558718706053106 L 87.43423612908822,-26.073981982498488 L 93.93992218904668,-21.723574083316834 L 93.51683687241692,-29.538367670792596 L 90.9100079824189,-28.053630947237977 A 45.607346772959865 45.607346772959865 0 0 0 85.54503699896699,-35.58059008696954"/><text text-anchor="middle" pointer-events="none" font-size="8px" fill="#000000" x="48.616763999539195" y="-47.51066360355378" transform="rotate(180 48.616763999539195 -50.51066360355378)" font-family="sans-serif">CHEAPEST_FLIGHT</text></g><g class="relationship" transform="translate(159.51032575307588 60.49991752604878) rotate(188.35559030243485)"><path class="outline" fill="#A5ABB6" stroke="none" d="M 16.537823926884638,-18.755009457831846 L 17.274499375876804,-18.07876299177662 A 46.16269185135415 46.16269185135415 0 0 1 17.96828660020884,-18.818082488377822 L 17.246640327300383,-19.510344474043173 A 47.16269185135415 47.16269185135415 0 0 0 16.537823926884638,-18.755009457831846 Z M 82.14407076430415,-22.52394016231218 L 81.4896838234693,-21.76778030377377 A 46.16269185135415 46.16269185135415 0 0 1 82.24900018307044,-21.095937541854664 L 80.23649325470757,-18.871119377758678 L 87.77566038735489,-16.770891069690624 L 84.93234275422094,-24.062361760649313 L 82.91983582585807,-21.837543596553328 A 47.16269185135415 47.16269185135415 0 0 0 82.14407076430415,-22.52394016231218"/><text text-anchor="middle" pointer-events="none" font-size="8px" fill="#000000" x="49.11691142394911" y="-30.47386878144834" transform="rotate(180 49.11691142394911 -33.47386878144834)" font-family="sans-serif">CHEAPEST_FL…</text></g><g class="relationship" transform="translate(159.51032575307588 60.49991752604878) rotate(188.35559030243485)"><path class="outline" fill="#A5ABB6" stroke="none" d="M 15.51265076951778,-19.61141672860427 L 16.28438862290498,-18.975475940755814 A 45.34834250471359 45.34834250471359 0 0 1 17.32486019343603,-20.193630066234707 L 16.576066322409886,-20.856433007321776 A 46.34834250471359 46.34834250471359 0 0 0 15.51265076951778,-19.61141672860427 Z M 82.83274861420215,-24.087794736254352 L 82.15200523079349,-23.355272759829525 A 45.34834250471359 45.34834250471359 0 0 1 83.30607658866758,-22.244147265819382 L 81.18749934652172,-20.120087363400984 L 88.61531256800149,-17.65481035121545 L 86.13084624486206,-25.07622713571058 L 84.0122690027162,-22.952167233292183 A 46.34834250471359 46.34834250471359 0 0 0 82.83274861420215,-24.087794736254352"/><text text-anchor="middle" pointer-events="none" font-size="8px" fill="#000000" x="49.04803584049968" y="-32.93052863839381" transform="rotate(180 49.04803584049968 -35.93052863839381)" font-family="sans-serif">CHEAPEST_FLI…</text></g><g class="relationship" transform="translate(159.51032575307588 60.49991752604878) rotate(188.35559030243485)"><path class="outline" fill="#A5ABB6" stroke="none" d="M 14.44320574945421,-20.411854586953456 L 15.247803529220876,-19.818034401379958 A 44.78463463246079 44.78463463246079 0 0 1 15.459475925672741,-20.102476762664026 L 14.659604597247899,-20.702648286450252 A 45.78463463246079 45.78463463246079 0 0 0 14.44320574945421,-20.411854586953456 Z M 84.91875023811255,-24.284646323046367 L 84.18406425915961,-23.606238987937175 A 44.78463463246079 44.78463463246079 0 0 1 84.42356720206718,-23.344798744953913 L 82.2034656191092,-21.32708990536692 L 89.50157142492982,-18.500846524649802 L 87.38370264601114,-26.03507719773657 L 85.16360106305316,-24.017368358149575 A 45.78463463246079 45.78463463246079 0 0 0 84.91875023811255,-24.284646323046367"/><text text-anchor="middle" pointer-events="none" font-size="8px" fill="#000000" x="48.97568468101443" y="-35.44991084237471" transform="rotate(180 48.97568468101443 -38.44991084237471)" font-family="sans-serif">CHEAPEST_FLIG…</text></g><g class="relationship" transform="translate(159.51032575307588 60.49991752604878) rotate(188.35559030243485)"><path class="outline" fill="#A5ABB6" stroke="none" d="M 13.332540977116146,-21.154038647348617 L 14.167702425648983,-20.604033779293314 A 44.43897495713003 44.43897495713003 0 0 1 14.736773541462277,-21.44698579507823 L 13.914417768946095,-22.015959417849366 A 45.43897495713003 45.43897495713003 0 0 0 13.332540977116146,-21.154038647348617 Z M 85.70234034454649,-25.825502517811827 L 84.9448206325622,-25.17269022782699 A 44.43897495713003 44.43897495713003 0 0 1 85.59990967597871,-24.394700265832302 L 83.28312658724239,-22.4887841817023 L 90.43317772040477,-19.306525739469244 L 88.6889537942938,-26.93592171133897 L 86.37217070555748,-25.03000562720897 A 45.43897495713003 45.43897495713003 0 0 0 85.70234034454649,-25.825502517811827"/><text text-anchor="middle" pointer-events="none" font-size="8px" fill="#000000" x="48.900011928511894" y="-38.038213920721766" transform="rotate(180 48.900011928511894 -41.038213920721766)" font-family="sans-serif">CHEAPEST_FLIGHT</text></g><g class="relationship" transform="translate(159.51032575307588 60.49991752604878) rotate(188.35559030243485)"><path class="outline" fill="#A5ABB6" stroke="none" d="M 12.183826200797007,-21.83585077593205 L 13.047167834220282,-21.331230895231705 A 44.28635410102442 44.28635410102442 0 0 1 14.73541801970812,-23.996868910026347 L 13.910197613912587,-24.561679747261834 A 45.28635410102442 45.28635410102442 0 0 0 12.183826200797007,-21.83585077593205 Z M 85.62117735097584,-28.506921583701747 L 84.86289691726702,-27.854993072395196 A 44.28635410102442 44.28635410102442 0 0 1 86.83337783514249,-25.390643327126323 L 84.42505427128245,-23.601795202841735 L 91.40874405244986,-20.069363032166997 L 90.04447592028922,-27.775774159505772 L 87.63615235642918,-25.986926035221185 A 45.28635410102442 45.28635410102442 0 0 0 85.62117735097584,-28.506921583701747"/><text text-anchor="middle" pointer-events="none" font-size="8px" fill="#000000" x="48.82118139811876" y="-40.70218529273063" transform="rotate(180 48.82118139811876 -43.70218529273063)" font-family="sans-serif">CHEAPEST_FLIGHT</text></g><g class="relationship" transform="translate(159.51032575307588 60.49991752604878) rotate(188.35559030243485)"><path class="outline" fill="#A5ABB6" stroke="none" d="M 11.000339760453674,-22.45534513550353 L 11.889397670901271,-21.99755038687643 A 44.30760132534781 44.30760132534781 0 0 1 12.283994251704051,-22.746219824805344 L 11.403842185152293,-23.22091166141587 A 45.30760132534781 45.30760132534781 0 0 0 11.000339760453674,-22.45534513550353 Z M 88.46591550034353,-27.599900695698455 L 87.6452034500373,-27.02855865236351 A 44.30760132534781 44.30760132534781 0 0 1 88.12207113582758,-26.329409455754487 L 85.6276470023827,-24.66272164980889 L 92.4267467052748,-20.78686777870736 L 91.44796998042077,-28.55165986368195 L 88.95354584697589,-26.884972057736356 A 45.30760132534781 45.30760132534781 0 0 0 88.46591550034353,-27.599900695698455"/><text text-anchor="middle" pointer-events="none" font-size="8px" fill="#000000" x="48.73936679482428" y="-43.449197635905186" transform="rotate(180 48.73936679482428 -46.449197635905186)" font-family="sans-serif">CHEAPEST_BUSINE…</text></g><g class="relationship" transform="translate(159.51032575307588 60.49991752604878) rotate(188.35559030243485)"><path class="outline" fill="#A5ABB6" stroke="none" d="M 9.785459231586863,-23.010753738783777 L 10.697696118997978,-22.60109063177208 A 44.48814289711185 44.48814289711185 0 0 1 11.564024238056184,-24.418974567164096 L 10.671260586942246,-24.869499886374587 A 45.48814289711185 45.48814289711185 0 0 0 9.785459231586863,-23.010753738783777 Z M 89.22572537988783,-29.463803758314388 L 88.39156724897552,-28.912278407461994 A 44.48814289711185 44.48814289711185 0 0 1 89.46390405402282,-27.20777842536514 L 86.88911802484415,-25.668143110121186 L 93.48551746112182,-21.456550243155576 L 92.8969520929277,-29.26062551235708 L 90.32216606374904,-27.720990197113125 A 45.48814289711185 45.48814289711185 0 0 0 89.22572537988783,-29.463803758314388"/><text text-anchor="middle" pointer-events="none" font-size="8px" fill="#000000" x="48.654751751410494" y="-46.28733710861689" transform="rotate(180 48.654751751410494 -49.28733710861689)" font-family="sans-serif">CHEAPEST_BUSINESS</text></g><g class="relationship" transform="translate(159.51032575307588 60.49991752604878) rotate(188.35559030243485)"><path class="outline" fill="#A5ABB6" stroke="none" d="M 8.542651785911206,-23.500491494108545 L 9.47546419928147,-23.14012917440469 A 44.81711041112023 44.81711041112023 0 0 1 11.393888139468203,-27.423969683900292 L 10.503881340350809,-27.87991693690749 A 45.81711041112023 45.81711041112023 0 0 0 8.542651785911206,-23.500491494108545 Z M 89.26887366741826,-32.60537214232984 L 88.43976305340541,-32.046287542531886 A 44.81711041112023 44.81711041112023 0 0 1 90.85659553368009,-28.022537961933374 L 88.20748401922823,-26.61462880861468 L 94.58323547716569,-22.07592928709881 L 94.3887442196159,-29.8997501663583 L 91.73963270516404,-28.491841013039604 A 45.81711041112023 45.81711041112023 0 0 0 89.26887366741826,-32.60537214232984"/><text text-anchor="middle" pointer-events="none" font-size="8px" fill="#000000" x="48.56752984212726" y="-49.225505754699995" transform="rotate(180 48.56752984212726 -52.225505754699995)" font-family="sans-serif">CHEAPEST_BUSINESS</text></g><g class="relationship" transform="translate(159.51032575307588 60.49991752604878) rotate(464.47574622692355)"><path class="outline" fill="#A5ABB6" stroke="none" d="M 5.987513214418485,-24.277555179777966 L 6.953439040707552,-24.018736134675446 A 45.89005147255451 45.89005147255451 0 0 1 10.89584530327837,-33.93672304524994 L 10.015829301364391,-34.411667080242836 A 46.89005147255451 46.89005147255451 0 0 0 5.987513214418485,-24.277555179777966 Z M 89.44790522704096,-39.37889140103881 L 88.63391421827444,-38.79801392889234 A 45.89005147255451 45.89005147255451 0 0 1 93.7812024526322,-29.448444135050167 L 91.00273242518395,-28.317027188663147 L 96.8842536654433,-23.153916895402098 L 97.48582915589654,-30.9570000635662 L 94.70735912844829,-29.82558311717918 A 46.89005147255451 46.89005147255451 0 0 0 89.44790522704096,-39.37889140103881"/><text text-anchor="middle" pointer-events="none" font-size="8px" fill="#000000" x="48.38451399756366" y="-55.44112860490481" transform="rotate(180 48.38451399756366 -58.44112860490481)" font-family="sans-serif">CHEAPEST_BUSINESS</text></g><g class="relationship" transform="translate(159.51032575307588 60.49991752604878) rotate(188.35559030243485)"><path class="outline" fill="#A5ABB6" stroke="none" d="M 7.275464296324875,-23.923160729153288 L 8.226190063746978,-23.61312764195185 A 45.28669836640453 45.28669836640453 0 0 1 11.169600106693757,-30.594809339665296 L 10.283869363177622,-31.059008704152532 A 46.28669836640453 46.28669836640453 0 0 0 7.275464296324875,-23.923160729153288 Z M 89.345297494465,-35.909034958348684 L 88.5229472790534,-35.34005330380041 A 45.28669836640453 45.28669836640453 0 0 1 92.29765864388587,-28.77049501413499 L 89.58055368804173,-27.498747924919844 L 95.71791934469523,-22.64254129870118 L 95.92046525167805,-30.466157799755184 L 93.20336029583392,-29.194410710540037 A 46.28669836640453 46.28669836640453 0 0 0 89.345297494465,-35.909034958348684"/><text text-anchor="middle" pointer-events="none" font-size="8px" fill="#000000" x="48.47790456733845" y="-52.273540939586574" transform="rotate(180 48.47790456733845 -55.273540939586574)" font-family="sans-serif">CHEAPEST_BUSINESS</text></g><g class="relationship" transform="translate(159.51032575307588 60.49991752604878) rotate(188.35559030243485)"><path class="outline" fill="#A5ABB6" stroke="none" d="M 5.987513214418485,-24.277555179777966 L 6.953439040707552,-24.018736134675446 A 45.89170397457289 45.89170397457289 0 0 1 10.896812840368362,-33.93860980974371 L 10.016814828000648,-34.41358717576115 A 46.89170397457289 46.89170397457289 0 0 0 5.987513214418485,-24.277555179777966 Z M 89.44991161650904,-39.38073368038765 L 88.63594054574041,-38.79982826988456 A 45.89170397457289 45.89170397457289 0 0 1 93.78439061205268,-29.448488656339684 L 91.00591656497163,-28.317081581190756 L 96.8874194619137,-23.15395039234206 L 97.48902267482741,-30.957031423204924 L 94.71054862774636,-29.825624348055996 A 46.89170397457289 46.89170397457289 0 0 0 89.44991161650904,-39.38073368038765"/><text text-anchor="middle" pointer-events="none" font-size="8px" fill="#000000" x="48.3860893040364" y="-55.44235532957367" transform="rotate(180 48.3860893040364 -58.44235532957367)" font-family="sans-serif">CHEAPEST_BUSINESS</text></g></g><g class="layer nodes"><g class="node" transform="translate(132.9353164101445,163.4375931347373)"><circle class="outline" cx="0" cy="0" r="25" fill="#ECB5C9" stroke="#da7298" stroke-width="2px"/><text text-anchor="middle" pointer-events="none" font-family="sans-serif" dy="1.5625" font-size="25" fill="#604A0E"/><text text-anchor="middle" pointer-events="none" y="5" font-size="10px" fill="#604A0E" font-family="sans-serif"> MSN</text></g><g class="node" transform="translate(159.51032575307588,60.49991752604878)"><circle class="outline" cx="0" cy="0" r="25" fill="#ECB5C9" stroke="#da7298" stroke-width="2px"/><text text-anchor="middle" pointer-events="none" font-family="sans-serif" dy="1.5625" font-size="25" fill="#604A0E"/><text text-anchor="middle" pointer-events="none" y="5" font-size="10px" fill="#604A0E" font-family="sans-serif"> ORD</text></g><g class="node" transform="translate(54.32302826444153,45.05050730675019)"><circle class="outline" cx="0" cy="0" r="25" fill="#ECB5C9" stroke="#da7298" stroke-width="2px"/><text text-anchor="middle" pointer-events="none" font-family="sans-serif" dy="1.5625" font-size="25" fill="#604A0E"/><text text-anchor="middle" pointer-events="none" y="5" font-size="10px" fill="#604A0E" font-family="sans-serif"> GRR</text></g></g></svg>